<svg width="166" height="334" viewBox="0 0 166 334" fill="none" xmlns="http://www.w3.org/2000/svg">
<g clip-path="url(#clip0_8_1130)">
<path d="M165.842 22.3696H-731.252V312.402H165.842V22.3696Z" fill="#3E4464"/>
<path d="M142.162 102.689L142.251 312.641C116.956 312.7 46.7855 312.7 22.6747 312.67L22.5858 102.659C22.5858 70.357 49.3624 44.1834 82.3593 44.1834C115.356 44.1834 142.133 70.357 142.133 102.659L142.162 102.689Z" stroke="#464C6B" stroke-width="19.2841"/>
<path d="M142.162 102.689L142.251 312.67C117.074 312.729 47.2591 312.729 23.2667 312.7L23.1779 102.689C23.1779 70.357 49.8064 44.1538 82.6551 44.1538C115.504 44.1538 142.132 70.357 142.132 102.689H142.162Z" fill="#161824"/>
<path d="M251.253 334.314H-886.161V338.163H251.253V334.314Z" fill="#1B1B1B" stroke="#333333" stroke-width="0.771363"/>
<path d="M251.253 312.7H-886.161V316.549H251.253V312.7Z" fill="#1F212D" stroke="#1F212D" stroke-width="0.771363"/>
<path d="M85.7055 316.549H-36.063V334.314H85.7055V316.549Z" fill="#333647"/>
<path d="M206.882 316.549H85.7061V334.314H206.882V316.549Z" fill="#3A3D51"/>
<path d="M251.312 18.5427H-886.102V22.3918H251.312V18.5427Z" fill="#1F212D" stroke="#1F212D" stroke-width="0.771363"/>
<path d="M85.7649 0.777808H-36.0035V18.5427H85.7649V0.777808Z" fill="#333647"/>
<path d="M206.941 0.777808H85.7648V18.5427H206.941V0.777808Z" fill="#3A3D51"/>
</g>
<defs>
<clipPath id="clip0_8_1130">
<rect width="165.843" height="334" fill="white"/>
</clipPath>
</defs>
</svg>
