<svg width="125" height="334" viewBox="0 0 125 334" fill="none" xmlns="http://www.w3.org/2000/svg">
<g clip-path="url(#clip0_20273_40281)">
<path d="M124.962 22.3696H0.000976562V312.402H124.962V22.3696Z" fill="#2D324C"/>
<path d="M-16.3213 245.923V233.902C-16.3213 231.03 -14.3664 228.661 -11.9671 228.661H9.27052C11.6697 228.661 13.6247 231.03 13.6247 233.902V245.923C13.6247 248.795 11.6697 251.163 9.27052 251.163H-11.9671C-14.3664 251.163 -16.3213 248.795 -16.3213 245.923Z" fill="#363B57"/>
<path d="M-15.6533 154.552V142.532C-15.6533 139.66 -13.6984 137.291 -11.2992 137.291H9.93848C12.3377 137.291 14.2927 139.66 14.2927 142.532V154.552C14.2927 157.424 12.3377 159.793 9.93848 159.793H-11.2992C-13.6984 159.793 -15.6533 157.424 -15.6533 154.552Z" fill="#363B57"/>
<path d="M-15.6533 62.4146V50.3937C-15.6533 47.5217 -13.6984 45.1531 -11.2992 45.1531H9.93848C12.3377 45.1531 14.2927 47.5217 14.2927 50.3937V62.4146C14.2927 65.2866 12.3377 67.6553 9.93848 67.6553H-11.2992C-13.6984 67.6553 -15.6533 65.2866 -15.6533 62.4146Z" fill="#363B57"/>
<path d="M99.7596 161.757V312.7H28.7305V161.757C28.7305 142.098 44.6069 126.168 64.245 126.168C83.8832 126.168 99.7892 142.098 99.7892 161.757H99.7596Z" fill="#212538"/>
<path d="M97.7156 163.386C97.7156 213.157 97.7156 262.928 97.7156 312.7C87.8818 312.7 78.0479 312.67 68.2436 312.641C55.8624 312.641 43.4812 312.641 31.0703 312.7V163.386C31.0703 144.318 45.9989 128.833 64.393 128.833C82.7871 128.833 97.7156 144.289 97.7156 163.386Z" fill="#333852"/>
<path d="M94.458 165.222V312.7C89.8076 312.7 70.9988 312.7 66.3781 312.7C60.3652 312.7 40.0458 312.7 34.0625 312.7V165.222C34.0625 146.924 47.5989 132.09 64.275 132.09C80.9512 132.09 94.4876 146.924 94.4876 165.222H94.458Z" fill="#161824"/>
<path d="M1107.47 334.314H-29.9473V338.163H1107.47V334.314Z" fill="#1B1B1B" stroke="#333333" stroke-width="0.771363"/>
<path d="M1107.47 312.7H-29.9473V316.549H1107.47V312.7Z" fill="#1F212D" stroke="#1F212D" stroke-width="0.771363"/>
<path d="M212.938 316.549H91.1992V334.314H212.938V316.549Z" fill="#333647"/>
<path d="M91.1988 316.549H-29.918V334.314H91.1988V316.549Z" fill="#3A3D51"/>
<path d="M1107.53 18.5427H-29.8877V22.3917H1107.53V18.5427Z" fill="#1F212D" stroke="#1F212D" stroke-width="0.771363"/>
<path d="M212.998 0.777793H91.2588V18.5427H212.998V0.777793Z" fill="#333647"/>
<path d="M91.2584 0.777793H-29.8584V18.5427H91.2584V0.777793Z" fill="#3A3D51"/>
<path d="M78.166 95.5788V83.5579C78.166 80.6859 80.1209 78.3172 82.5202 78.3172H103.758C106.157 78.3172 108.112 80.6859 108.112 83.5579V95.5788C108.112 98.4508 106.157 100.819 103.758 100.819H82.5202C80.1209 100.819 78.166 98.4508 78.166 95.5788Z" fill="#363B57"/>
</g>
<defs>
<clipPath id="clip0_20273_40281">
<rect width="124.961" height="334" fill="white"/>
</clipPath>
</defs>
</svg>
