<svg width="61" height="43" viewBox="0 0 61 43" fill="none" xmlns="http://www.w3.org/2000/svg">
<rect width="61" height="43" rx="8" fill="white" fill-opacity="0.1"/>
<path d="M11.692 28V15.4H13.906L18.496 22.87L17.2 22.852L21.844 15.4H23.95V28H21.628V23.266C21.628 22.186 21.652 21.214 21.7 20.35C21.76 19.486 21.856 18.628 21.988 17.776L22.276 18.55L18.37 24.58H17.182L13.402 18.604L13.654 17.776C13.786 18.58 13.876 19.408 13.924 20.26C13.984 21.1 14.014 22.102 14.014 23.266V28H11.692ZM25.9325 28L30.8465 15.4H33.0425L37.9205 28H35.4905L32.7905 20.836C32.7305 20.692 32.6465 20.464 32.5385 20.152C32.4425 19.84 32.3345 19.504 32.2145 19.144C32.0945 18.772 31.9865 18.43 31.8905 18.118C31.7945 17.794 31.7225 17.56 31.6745 17.416L32.1245 17.398C32.0525 17.638 31.9685 17.908 31.8725 18.208C31.7765 18.508 31.6745 18.82 31.5665 19.144C31.4585 19.468 31.3505 19.78 31.2425 20.08C31.1465 20.38 31.0565 20.65 30.9725 20.89L28.2725 28H25.9325ZM28.1645 25.12L28.9745 23.086H34.7165L35.5805 25.12H28.1645ZM47.4829 28L43.5769 22.348L38.5729 15.4H41.4889L45.3049 20.98L50.3989 28H47.4829ZM38.4829 28L43.2889 21.142L44.9449 22.564L41.2189 28H38.4829ZM45.5929 22.15L43.9549 20.782L47.4829 15.4H50.2189L45.5929 22.15Z" fill="#CDCDCD"/>
</svg>
