<svg width="80" height="60" viewBox="0 0 80 60" fill="none" xmlns="http://www.w3.org/2000/svg">
<g clip-path="url(#clip0_20273_48090)">
<path fill-rule="evenodd" clip-rule="evenodd" d="M47.0393 15.3696C45.2967 14.3451 44.8388 14.0199 44.759 12.8346C45.8323 13.0038 47.0034 14.0916 47.9171 15.0089C49.4406 14.4691 50.0717 13.5036 51.0298 14.1876C50.0345 15.3173 49.8094 14.9237 48.7395 15.6288C50.9065 17.1645 50.1389 15.1224 52.9038 15.2244C52.0144 16.414 51.3912 16.0505 50.4904 17.0701C51.5952 18.1632 51.5832 17.5976 51.7458 18.7392C50.7296 18.3374 50.0521 17.3511 48.9454 17.6685C48.8753 18.2392 48.7105 17.4995 49.1217 18.1356C49.3661 18.5138 49.1317 18.1312 49.5518 18.6339C50.4279 19.6824 50.0588 18.9043 50.3268 19.8292C46.7575 18.9476 50.0434 17.3708 44.7488 19.5477C45.0788 18.3013 45.8844 18.304 47.0459 17.7364C46.3463 17.2655 46.8012 17.6962 46.1507 16.798C44.8778 17.3659 43.2539 18.5816 42.2384 17.7972L45.2563 16.2342C44.2998 15.8236 44.7907 15.5528 42.7166 14.5292C43.2822 13.8903 41.721 12.8147 44.156 14.2495C44.2439 14.3012 44.9443 15.0196 45.1541 15.1783C45.8977 15.7411 46.0619 15.8739 47.0393 15.3696ZM24.9247 17.3882C25.4672 18.1767 25.4835 17.5847 24.7022 18.9798C24.4265 19.4719 24.1585 19.9358 23.8073 20.4584L22.0489 19.9526C20.8551 19.9526 19.6025 19.9176 18.4146 19.9551C16.9006 20.0029 16.6855 20.2768 16.0412 19.9526C15.2936 20.8849 16.125 20.2142 14.9263 20.7775C14.4455 21.0036 14.2316 21.0256 13.7104 21.3202C12.7371 21.8705 12.3176 22.2344 11.2731 22.8333L10.1953 24.2562L10.4647 24.9877C12.9131 23.9639 11.2357 24.0013 13.2907 22.7251C17.274 20.2513 22.639 20.981 26.3805 22.8677C26.4423 22.8989 27.0225 23.2174 27.078 23.2486L29.4345 24.8137C30.7049 25.6757 30.4975 25.2258 31.4581 26.3869C31.5049 26.4435 31.5616 26.5352 31.608 26.592L35.6515 30.762C35.6869 30.7585 35.7274 30.6623 35.736 30.697C35.9419 31.5279 35.6388 30.5452 36.1603 30.6497C36.1963 30.657 36.3301 30.7194 36.3628 30.7284C36.4018 30.739 36.5267 30.7867 36.6002 30.8323C38.5549 33.7788 39.9983 38.1005 38.4778 42.0281C46.3226 44.2806 48.5599 45.6219 57.7985 45.9795C59.0349 45.2434 60.9614 42.9244 61.8487 41.3011L57.1657 38.3647C56.4463 37.8222 56.0314 38.2994 56.4763 36.9705C57.4973 35.4266 60.1393 38.3881 63.0058 40.1736C63.6891 39.1892 64.5271 38.3981 65.2555 37.3381C65.8423 36.4841 66.6001 34.288 67.8021 34.9524C68.9928 35.6105 67.3794 37.46 66.8118 38.198L64.417 41.1367C64.9515 42.1687 65.873 42.9378 67.046 43.4082C68.1318 42.2776 69.4225 41.6786 70.3998 40.7002C71.3161 39.7827 72.3979 38.3558 73.1085 36.9258C74.8947 33.3312 75.6112 30.6872 75.059 26.0891C73.9086 22.8524 67.5666 21.0879 65.2606 20.2196C63.0654 19.393 64.2342 17.4612 57.7768 13.6834L56.4479 12.6607C55.166 12.6342 52.5688 11.6529 51.587 10.9447C48.8825 10.889 46.9567 9.96664 43.6249 10.2408C41.1258 10.4465 38.57 10.9963 36.4644 11.709C33.6511 12.6611 26.4229 15.4989 24.9247 17.3882Z" fill="#D07F34"/>
<path fill-rule="evenodd" clip-rule="evenodd" d="M70.5507 49.6799L19.8976 49.6932L2.29237 49.679C2.02186 50.5183 2.30154 50.6366 2.67726 51.2342C5.50764 55.735 9.35366 57.0771 14.507 57.9408L65.8804 57.9128C71.5677 57.1316 74.4323 55.6316 77.4025 51.6612C79.525 48.8238 77.6907 49.4984 70.91 49.4984C70.91 50.0021 71.0103 49.9087 70.5507 49.6799Z" fill="#D9D9D9"/>
<path fill-rule="evenodd" clip-rule="evenodd" d="M17.4152 25.8504C18.805 25.1853 17.7185 24.6523 18.4583 23.0574L18.9743 25.5736C20.731 25.2688 20.5341 25.4669 20.9384 25.851C19.9125 26.346 19.5258 25.9534 18.9362 26.7986C19.7212 27.2602 18.3814 26.7949 19.6052 26.9587C21.1774 27.1691 20.1005 26.5727 21.2293 27.1589C20.4622 27.8525 20.2279 27.6902 18.9666 28.0528C18.9934 28.4609 19.0743 28.9271 18.9995 29.3366C18.7811 30.5309 18.9584 29.9806 18.4583 30.502C17.7673 28.4658 18.8322 28.534 17.3805 28.2926C16.4033 29.5709 17.3589 29.9286 16.662 31.4101C15.9213 30.6733 16.1255 29.9422 16.2013 28.5444C14.8085 28.8069 14.4578 29.1941 13.2052 28.6001L15.0161 27.8954C16.3873 27.441 15.7285 28.185 16.1764 27.1589C14.8441 26.8792 14.3954 27.6802 13.1662 27.1296C13.9554 26.1726 14.5166 26.403 15.9852 26.0798C16.5738 24.7788 15.925 24.7668 16.662 23.4924L17.1078 24.9672C17.2812 25.6784 16.7207 25.4551 17.4152 25.8504ZM10.4648 24.9877C10.847 33.3469 13.4976 39.1875 21.7962 42.182C27.0173 44.066 33.994 43.5978 36.0645 37.2877C36.8124 35.0087 36.0281 32.763 36.6003 30.8323C36.5269 30.7867 36.4019 30.739 36.3629 30.7284C36.3302 30.7194 36.1965 30.657 36.1604 30.6497C35.639 30.5452 35.9421 31.5279 35.7361 30.697C35.7276 30.6623 35.687 30.7585 35.6517 30.762L31.6082 26.592C31.5617 26.5352 31.505 26.4435 31.4583 26.3869C30.4976 25.2258 30.7051 25.6757 29.4346 24.8137L27.0781 23.2486C27.0226 23.2174 26.4424 22.8989 26.3807 22.8677C22.6392 20.981 17.2742 20.2513 13.2908 22.7251C11.2358 24.0013 12.9133 23.9639 10.4648 24.9877Z" fill="#BB702A"/>
<path fill-rule="evenodd" clip-rule="evenodd" d="M67.0455 43.4082C67.5897 44.4571 67.727 44.0279 68.429 45.1747C68.1752 45.7705 68.3058 45.731 67.9015 46.1511C68.0424 46.337 69.285 45.3715 68.0313 46.9531C67.7039 47.3663 67.6611 47.2063 67.2487 47.0521C66.4254 46.7442 64.7236 44.031 62.7541 44.8189C60.659 45.657 59.5522 49.7156 57.0769 48.6045C56.6924 47.1338 56.9023 48.376 57.4829 47.937C57.461 47.9054 57.0154 47.0724 56.9586 46.9762C57.3335 46.5767 57.4905 46.3513 57.798 45.9795C48.5594 45.6219 46.3221 44.2805 38.4774 42.0281C38.1364 43.1035 38.0746 43.2924 37.3659 44.3063C37.0006 44.829 36.9528 44.8896 36.553 45.32L32.1511 48.8302C30.3169 49.8412 23.3635 49.0813 21.3083 49.3179C19.2538 49.5546 23.2972 48.9164 20.5941 49.458L19.8965 49.6932L70.5496 49.6799L70.909 49.4984C71.9705 48.0452 77.2404 45.2284 78.5765 36.2736C79.0017 33.4244 78.1621 32.7892 78.094 30.1759L75.0586 26.0891C75.6107 30.6872 74.8942 33.3312 73.1081 36.9258C72.3975 38.3558 71.3156 39.7827 70.3993 40.7002C69.4221 41.6786 68.1313 42.2776 67.0455 43.4082Z" fill="#B26925"/>
<path fill-rule="evenodd" clip-rule="evenodd" d="M2.29199 49.6791L19.8972 49.6932L20.5949 49.458C23.2979 48.9164 19.2545 49.5546 21.309 49.318C23.3642 49.0813 30.3176 49.8412 32.1518 48.8302L36.5537 45.32C36.9535 44.8896 37.0013 44.829 37.3666 44.3063C38.0753 43.2924 38.1371 43.1035 38.4781 42.0281C39.9985 38.1005 38.5551 33.7788 36.6004 30.8323C36.0282 32.763 36.8125 35.0087 36.0646 37.2877C33.9941 43.5978 27.0175 44.066 21.7963 42.182C13.4977 39.1875 10.8471 33.3469 10.465 24.9877L10.1956 24.2562C4.22224 33.5271 10.1985 44.1932 17.8924 48.6249L19.5361 49.4985L2.29199 49.6791Z" fill="#9B5717"/>
<path fill-rule="evenodd" clip-rule="evenodd" d="M10.1954 20.0749C11.3706 19.7423 12.0286 19.8317 12.9878 19.5021L15.0987 18.151C12.6981 13.7202 14.5914 16.0632 15.5218 11.9334C16.9921 5.40679 9.97609 4.28222 9.83615 10.5844C9.03877 9.9985 7.51867 6.76843 4.71467 6.32664C1.65859 5.84511 -4.01389 10.793 5.03519 15.3994C7.08969 16.4453 8.26614 16.4415 8.86145 17.3258C9.36306 18.0709 9.0732 18.4611 10.1954 20.0749Z" fill="#FEDEBE"/>
<path fill-rule="evenodd" clip-rule="evenodd" d="M65.8793 57.9128L14.5059 57.9408V59.9475H65.8793V57.9128Z" fill="#AAAAAA"/>
<path fill-rule="evenodd" clip-rule="evenodd" d="M49.3543 3.73838C48.1973 2.96143 46.9981 1.22684 45.6402 0.91743C43.5033 0.430484 42.2315 2.26172 42.5254 4.41094C42.8998 7.15007 45.9387 8.4202 48.3063 8.75075C50.3845 9.04086 49.3808 8.73818 50.7913 9.9792C52.884 10.0111 54.7441 10.611 56.1772 9.14311C55.7903 8.55902 55.4043 8.09965 54.9747 7.46979C53.1692 4.82269 55.7114 3.73777 53.3062 0.135269C50.3277 0.135269 49.3543 0.717719 49.3543 3.73838Z" fill="#FEDEBE"/>
<path fill-rule="evenodd" clip-rule="evenodd" d="M60.1306 10.5844C61.5407 12.1183 58.3863 9.62024 61.0267 11.0233L61.4708 11.279C60.3333 13.2988 62.7202 15.0858 63.7277 15.9967L73.3482 22.2035C75.5263 23.3724 76.8183 24.2553 79.4068 23.7521L79.7075 21.3939C79.4477 20.0185 79.6859 19.9159 79.1729 18.911C78.2365 19.6102 77.8669 21.7112 73.3072 19.0002C65.2212 14.1926 70.5103 13.0863 71.639 12.0257C70.813 11.1268 67.9421 10.8013 66.3421 10.4818C63.879 9.98982 62.5172 10.2419 60.1306 10.5844Z" fill="#A96422"/>
<path fill-rule="evenodd" clip-rule="evenodd" d="M58.0578 11.305L56.4473 12.6607L57.7762 13.6834C64.2336 17.4612 63.0648 19.393 65.26 20.2196C67.566 21.0879 73.9079 22.8524 75.0584 26.0891L78.0938 30.1759C79.001 28.8457 80.3592 23.4096 79.7062 21.3939L79.4056 23.7521C76.817 24.2553 75.525 23.3724 73.3469 22.2035L63.7264 15.9967C62.7189 15.0858 60.332 13.2988 61.4695 11.279L61.0254 11.0233C58.385 9.62024 61.5394 12.1183 60.1293 10.5844C59.2041 10.8931 58.9209 11.0785 58.0578 11.305Z" fill="#8D4E14"/>
<path fill-rule="evenodd" clip-rule="evenodd" d="M57.7989 45.9795C57.4913 46.3513 57.3344 46.5767 56.9595 46.9762C57.0163 47.0724 57.4619 47.9054 57.4838 47.937L58.5024 48.1451C59.6798 45.7757 61.7547 45.5175 62.9522 42.9725C64.1089 43.546 64.4165 43.7454 65.2984 44.6765C65.9981 45.4151 66.5563 46.265 67.9023 46.1511C68.3067 45.731 68.1761 45.7705 68.4299 45.1747C67.7278 44.0279 67.5906 44.4571 67.0464 43.4082C65.8734 42.9378 64.9519 42.1687 64.4175 41.1367L66.8122 38.198C67.3798 37.46 68.9932 35.6105 67.8025 34.9524C66.6005 34.288 65.8427 36.4841 65.2559 37.3381C64.5275 38.3981 63.6895 39.1892 63.0062 40.1736C60.1397 38.3881 57.4977 35.4265 56.4767 36.9705C56.0318 38.2994 56.4467 37.8222 57.1661 38.3647L61.8491 41.3011C60.9618 42.9244 59.0354 45.2434 57.7989 45.9795Z" fill="#764920"/>
<path fill-rule="evenodd" clip-rule="evenodd" d="M79.1729 18.911C78.4211 15.5048 75.2584 12.603 71.6391 12.0257C70.5104 13.0863 65.2213 14.1926 73.3073 19.0002C77.8669 21.7112 78.2365 19.6102 79.1729 18.911Z" fill="#C07532"/>
<path fill-rule="evenodd" clip-rule="evenodd" d="M47.0391 15.3696C46.0618 15.8739 45.8976 15.7411 45.154 15.1783C44.9442 15.0196 44.2438 14.3012 44.1559 14.2495C41.7209 12.8147 43.282 13.8903 42.7165 14.5292C44.7905 15.5528 44.2997 15.8236 45.2562 16.2342L42.2383 17.7972C43.2537 18.5816 44.8777 17.3659 46.1506 16.798C46.801 17.6962 46.3462 17.2655 47.0458 17.7364C45.8843 18.304 45.0786 18.3013 44.7486 19.5477C50.0433 17.3708 46.7573 18.9476 50.3266 19.8292C50.0586 18.9043 50.4277 19.6824 49.5516 18.6339C49.1315 18.1312 49.366 18.5138 49.1215 18.1356C48.7104 17.4995 48.8752 18.2392 48.9452 17.6685C50.0519 17.3511 50.7294 18.3374 51.7457 18.7392C51.583 17.5976 51.595 18.1632 50.4903 17.0701C51.391 16.0505 52.0142 16.414 52.9037 15.2244C50.1388 15.1224 50.9063 17.1645 48.7394 15.6288C49.8092 14.9237 50.0344 15.3173 51.0297 14.1876C50.0716 13.5036 49.4404 14.4691 47.917 15.0089C47.0033 14.0916 45.8321 13.0038 44.7588 12.8346C44.8387 14.0199 45.2966 14.3451 47.0391 15.3696Z" fill="#B96E2A"/>
<path fill-rule="evenodd" clip-rule="evenodd" d="M17.4151 25.8504C16.7205 25.4551 17.281 25.6784 17.1077 24.9672L16.6619 23.4924C15.9248 24.7668 16.5737 24.7788 15.985 26.0798C14.5164 26.403 13.9552 26.1726 13.166 27.1296C14.3952 27.6802 14.844 26.8792 16.1763 27.1589C15.7283 28.185 16.3871 27.441 15.0159 27.8954L13.205 28.6001C14.4577 29.1941 14.8083 28.8069 16.2011 28.5444C16.1253 29.9422 15.9211 30.6733 16.6619 31.4101C17.3587 29.9286 16.4031 29.5709 17.3803 28.2927C18.8321 28.534 17.7671 28.4658 18.4581 30.502C18.9583 29.9806 18.7809 30.5309 18.9993 29.3366C19.0742 28.9271 18.9932 28.4609 18.9664 28.0528C20.2277 27.6902 20.4621 27.8525 21.2291 27.1589C20.1003 26.5727 21.1773 27.1691 19.605 26.9587C18.3812 26.7949 19.721 27.2602 18.9361 26.7986C19.5257 25.9534 19.9123 26.346 20.9382 25.851C20.534 25.4669 20.7308 25.2688 18.9742 25.5736L18.4581 23.0574C17.7184 24.6523 18.8048 25.1853 17.4151 25.8504Z" fill="#9E6026"/>
<path fill-rule="evenodd" clip-rule="evenodd" d="M50.791 9.9792C51.2072 10.9027 50.6264 10.1941 51.587 10.9447C52.5687 11.6529 55.1659 12.6342 56.4478 12.6607L58.0583 11.305C57.3302 10.4122 57.0951 9.75652 56.1769 9.14311C54.7438 10.611 52.8837 10.0111 50.791 9.9792Z" fill="#E6B78B"/>
<path fill-rule="evenodd" clip-rule="evenodd" d="M10.1953 20.0749C10.4896 21.1359 10.8782 21.643 11.2731 22.8333C12.3176 22.2344 12.7371 21.8705 13.7104 21.3202C14.2316 21.0256 14.4455 21.0036 14.9263 20.7775C16.125 20.2142 15.2936 20.8849 16.0412 19.9526C15.5373 19.221 15.4133 18.943 15.0986 18.151L12.9877 19.5021C12.0286 19.8317 11.3705 19.7423 10.1953 20.0749Z" fill="#E4B487"/>
<path fill-rule="evenodd" clip-rule="evenodd" d="M57.4838 47.937C56.9031 48.376 56.6932 47.1338 57.0777 48.6045C59.553 49.7156 60.6598 45.657 62.755 44.8189C64.7244 44.031 66.4262 46.7442 67.2496 47.0521C67.6619 47.2063 67.7047 47.3663 68.0322 46.9531C69.2858 45.3715 68.0433 46.337 67.9023 46.1511C66.5563 46.265 65.9981 45.4151 65.2984 44.6765C64.4165 43.7454 64.1088 43.546 62.9521 42.9725C61.7547 45.5175 59.6797 45.7757 58.5024 48.1451L57.4838 47.937Z" fill="#E28E41"/>
<path fill-rule="evenodd" clip-rule="evenodd" d="M22.0485 19.9526L23.8069 20.4584C24.158 19.9358 24.426 19.4719 24.7017 18.9798C25.483 17.5847 25.4667 18.1767 24.9243 17.3882C23.7873 17.7584 24.0091 17.8575 23.1168 18.5063C22.8982 18.6654 22.5824 18.7644 22.2935 19.1311C21.7684 19.7972 21.9776 19.2903 22.0485 19.9526Z" fill="#B56B26"/>
</g>
<defs>
<clipPath id="clip0_20273_48090">
<rect width="79.7647" height="60" fill="white" transform="translate(0.15918)"/>
</clipPath>
</defs>
</svg>
