<svg width="110" height="119" viewBox="0 0 110 119" fill="none" xmlns="http://www.w3.org/2000/svg">
<path fill-rule="evenodd" clip-rule="evenodd" d="M24.0156 40.0077C22.7068 47.1518 24.8975 51.9899 31.974 52.4828C32.7438 46.3519 36.9847 42.783 35.9545 36.5842C28.2651 17.9192 48.7329 13.6476 63.4479 24.216C67.8932 23.8971 72.3917 24.3747 76.9276 25.4098C79.8602 16.409 93.1995 12.3443 93.1485 23.506C95.4711 33.9933 101.17 43.7894 100.117 54.968C104.878 60.6798 106.383 67.7553 103.794 76.5453C108.146 79.417 108.095 82.1028 103.356 84.5898C108.798 90.0994 104.362 95.2173 97.5688 90.7465C62.0747 124.096 -13.6684 100.911 6.90367 60.5031C7.31533 57.2333 8.30481 53.503 10.4413 48.8785C12.0159 49.0299 12.9301 49.7781 13.5025 50.8357C12.0436 44.4724 16.6064 40.9964 24.0156 40.0077Z" fill="#EFF8FA"/>
<path fill-rule="evenodd" clip-rule="evenodd" d="M85.4303 99.3039C61.7169 111.674 29.8089 107.595 13.6761 93.9646C21.072 97.9881 30.1076 99.4792 37.1446 97.1234C44.3561 100.089 52.7955 101.837 62.2188 102.278C70.2594 102.654 78.1124 101.566 85.4303 99.3039ZM7.08643 59.2533C7.5808 56.2859 8.57203 52.9244 10.4413 48.8784C10.1077 51.4923 9.94006 54.0185 9.92824 56.4574C8.89835 57.3919 7.9433 58.3245 7.08643 59.2533Z" fill="#CBD3D4"/>
<path fill-rule="evenodd" clip-rule="evenodd" d="M47.5935 13.4683C52.4557 12.6211 40.1312 8.13465 43.3824 5.24688C55.1524 -5.20766 78.7611 -0.478909 75.3766 25.0777C71.3658 24.2761 67.3859 23.9335 63.4478 24.216C48.7328 13.6476 28.265 17.9192 35.9545 36.5842C36.4755 39.7197 35.6478 42.1823 34.6031 44.644C34.7469 27.8188 25.8168 31.1237 25.916 24.9378C25.986 20.57 32.9904 23.2184 34.4438 21.9021C36.4013 20.1288 27.4809 18.3953 32.714 13.2905C36.9307 9.17722 43.1228 14.2472 47.5935 13.4683Z" fill="url(#paint0_linear_17405_11443)"/>
<path fill-rule="evenodd" clip-rule="evenodd" d="M52.1666 22.2118C62.0102 21.5163 66.1541 28.8672 66.1541 38.3617C66.1541 47.8562 58.8419 56.4806 50.3971 56.4806C41.9523 56.4806 35.1064 48.7837 35.1064 39.2892C35.1064 29.7947 42.323 22.9074 52.1666 22.2118Z" fill="#FFEF9E"/>
<path fill-rule="evenodd" clip-rule="evenodd" d="M65.3955 31.9002C65.9081 33.8707 66.1541 36.0525 66.1541 38.3617C66.1541 47.8562 58.8419 56.4806 50.3971 56.4806C41.9523 56.4806 35.1064 48.7837 35.1064 39.2892C35.1064 33.6909 37.6161 28.9998 41.6931 25.9492C41.3397 26.8312 40.9769 27.7937 40.6013 28.8487C35.4996 43.1794 44.0758 50.9822 52.0717 50.9822C60.0677 50.9822 66.1563 42.9672 65.3955 31.9002Z" fill="#EBD778"/>
<path fill-rule="evenodd" clip-rule="evenodd" d="M52.1665 22.2118C59.6161 21.6854 63.8004 25.7681 65.3954 31.9002C62.8471 27.3761 58.0241 24.3238 52.4932 24.3238C45.6003 24.3238 38.0414 28.9374 35.377 36.1761C36.7715 28.3177 43.4352 22.8287 52.1665 22.2118Z" fill="#070606"/>
<path fill-rule="evenodd" clip-rule="evenodd" d="M46.9106 20.8387C51.0331 20.0466 54.9742 20.8737 57.6362 22.7877C56.0553 22.2767 54.2375 22.0654 52.1665 22.2118C44.9026 22.7251 39.07 26.6105 36.5115 32.4267C36.5017 32.3814 36.4917 32.3363 36.4828 32.2907C35.5057 27.2605 40.1742 22.1332 46.9106 20.8387Z" fill="#DAE5E7"/>
<path d="M45.2681 38.6023C46.9096 38.9722 48.6539 37.4561 49.1641 35.2161C49.6744 32.976 48.7574 30.8603 47.1159 30.4904C45.4745 30.1206 43.7302 31.6367 43.2199 33.8767C42.7097 36.1167 43.6267 38.2325 45.2681 38.6023Z" fill="#443F21"/>
<path fill-rule="evenodd" clip-rule="evenodd" d="M38.1083 49.5197L38.108 49.5205C36.3826 54.225 39.4473 59.4998 48.2426 59.2317C57.038 58.9636 63.9351 50.8449 64.4203 46.3013L64.4205 46.2991C61.7642 52.1748 56.3637 56.4806 50.3971 56.4806C45.3611 56.4806 40.8944 53.743 38.1083 49.5197Z" fill="#EA8888"/>
<path fill-rule="evenodd" clip-rule="evenodd" d="M72.5799 43.7861C74.6591 44.4372 72.8014 35.487 81.2154 35.5255C91.138 35.5711 96.2949 41.2236 91.6206 52.6232C87.0539 43.0428 73.3202 58.4282 68.6828 51.5699C64.6931 45.6695 68.3581 42.4639 72.5799 43.7861Z" fill="url(#paint1_radial_17405_11443)"/>
<path fill-rule="evenodd" clip-rule="evenodd" d="M70.6873 53.1506L70.6889 53.1479C72.8912 53.9033 75.878 52.7744 78.9544 51.5585L78.9546 51.5586C80.8076 56.3191 74.9609 53.9472 74.753 57.7008C74.4495 63.1852 72.8406 67.1638 69.2606 65.6394C65.6807 64.115 64.9393 60.3901 66.4988 57.3468C67.3816 55.6238 70.3118 54.8577 70.6873 53.1506Z" fill="#F65251"/>
<path fill-rule="evenodd" clip-rule="evenodd" d="M75.6295 55.9219C79.4106 58.224 84.0377 59.837 89.4459 58.6486C88.7887 62.9931 84.4161 66.4729 79.4932 64.5378C77.7742 63.862 75.9679 62.6489 74.3346 61.1647C74.5468 60.1195 74.6838 58.9492 74.753 57.7008C74.8008 56.8374 75.1474 56.2985 75.6295 55.9219ZM69.4791 54.7357C68.9894 53.631 68.7018 52.5533 68.6827 51.5699C69.233 52.3839 69.9117 52.8835 70.688 53.1493L70.6872 53.1506C70.5503 53.7736 70.0729 54.2711 69.4791 54.7357Z" fill="#DA9A15"/>
<path fill-rule="evenodd" clip-rule="evenodd" d="M88.3842 49.6087C84.9284 51.1402 83.5493 53.9915 85.6076 59.0482H85.5972L84.5554 59.0023C81.1983 58.7486 78.216 57.4965 75.6296 55.9219C77.2438 54.6614 80.3814 55.224 78.9546 51.5586L78.9545 51.5585C82.2904 50.2409 85.7298 48.8252 88.3842 49.6087Z" fill="#2F2F2F"/>
<path fill-rule="evenodd" clip-rule="evenodd" d="M106.313 78.7779L106.314 78.7785C111.748 68.318 112.327 60.279 100.117 54.968C104.878 60.6798 106.383 67.7553 103.794 76.5453C104.942 77.3025 105.783 78.0468 106.313 78.7779Z" fill="#B9C5C7"/>
<path fill-rule="evenodd" clip-rule="evenodd" d="M85.7999 20.5034C91.5149 20.5034 99.3021 27.6122 99.4459 35.5515C99.5703 42.419 97.3082 47.1305 92.9966 48.2775C94.7971 39.7861 89.7838 35.5649 81.2153 35.5256C80.6382 35.5229 80.1112 35.564 79.626 35.6399C79.4709 34.7575 79.3875 33.8743 79.3875 33.0072C79.3875 25.7832 80.0849 20.5034 85.7999 20.5034Z" fill="#FFEF9E"/>
<path fill-rule="evenodd" clip-rule="evenodd" d="M98.5906 42.3126C97.578 45.4597 95.686 47.5621 92.9966 48.2775C93.2893 46.897 93.4009 45.6303 93.3474 44.4751C95.2826 44.3801 97.0791 43.5974 98.5906 42.3126ZM82.911 35.5923C82.3626 35.5509 81.7975 35.5282 81.2153 35.5256C80.6382 35.5229 80.1112 35.564 79.626 35.6399C79.4709 34.7575 79.3875 33.8743 79.3875 33.0072C79.3875 26.812 79.9006 22.047 83.6513 20.8154C82.318 22.905 81.8391 26.0744 81.8391 29.9556C81.8391 31.8678 82.2304 33.7948 82.911 35.5923Z" fill="#EBD778"/>
<path fill-rule="evenodd" clip-rule="evenodd" d="M87.0826 18.9165C89.3131 18.9165 91.2018 20.4804 91.8416 22.6385C89.8371 21.293 87.7036 20.5034 85.7999 20.5034C84.7369 20.5034 83.8477 20.6864 83.104 21.0304C84.0156 19.7461 85.4583 18.9165 87.0826 18.9165Z" fill="#DAE5E7"/>
<path d="M97.5218 36.226C98.7665 35.8108 99.2435 33.8971 98.5873 31.9518C97.9311 30.0065 96.3902 28.7662 95.1456 29.1815C93.9009 29.5968 93.4239 31.5105 94.0801 33.4557C94.7363 35.401 96.2772 36.6413 97.5218 36.226Z" fill="#443F21"/>
<path d="M80.522 40.3579C81.8698 39.6259 82.5896 38.3534 82.1296 37.5156C81.6696 36.6778 80.2042 36.5919 78.8563 37.3239C77.5085 38.0559 76.7888 39.3284 77.2487 40.1662C77.7087 41.004 79.1742 41.0898 80.522 40.3579Z" fill="#FFE872"/>
<path fill-rule="evenodd" clip-rule="evenodd" d="M75.7748 79.7292C81.4068 79.0179 85.8519 77.2677 88.5093 75.507C90.7539 74.7229 90.1541 80.9086 88.2651 82.3468C85.8351 84.197 84.3622 78.6974 83.1511 79.1297C82.2733 79.4433 82.8903 86.5746 79.0265 87.2983C75.1627 88.022 74.8091 79.8511 75.7748 79.7292Z" fill="#E2EFF1"/>
<path fill-rule="evenodd" clip-rule="evenodd" d="M77.7048 36.2127V36.213C73.3253 38.2897 74.3003 44.325 72.5798 43.7861C71.5597 43.4666 70.5726 43.4122 69.7178 43.5956C72.4935 37.7014 74.6628 34.0773 77.7048 36.2127ZM74.3346 61.1647C75.968 62.6489 77.7742 63.862 79.4932 64.5378C73.6965 67.9513 67.4752 74.8677 61.1161 70.5061C58.1619 68.48 62.054 59.6725 66.194 51.139C66.5724 50.359 66.9365 49.5907 67.2888 48.8378C67.5608 49.6671 68.0136 50.5804 68.6828 51.5699C68.7554 51.6771 68.8291 51.787 68.6828 51.5699C68.7019 52.5533 68.9894 53.631 69.4791 54.7357C68.4457 55.5441 67.0593 56.2525 66.4987 57.3468C64.9393 60.3901 65.6806 64.115 69.2606 65.6394C72.0257 66.8155 73.6137 64.7107 74.3346 61.1647Z" fill="#E2EFF1"/>
<path fill-rule="evenodd" clip-rule="evenodd" d="M10.9602 55.5308L20.8732 63.9731C22.6411 62.0375 24.4091 60.1018 26.177 58.1662C33.2211 61.7414 40.265 65.3167 47.3091 68.8919C60.5627 124.051 -30.4863 90.9469 10.9602 55.5308Z" fill="white"/>
<path fill-rule="evenodd" clip-rule="evenodd" d="M10.9602 55.5308L20.8732 63.9731C22.6411 62.0375 24.4091 60.1018 26.177 58.1662L47.1517 68.812C41.6226 66.28 34.2106 63.3285 26.7675 60.1668L21.0531 65.9487L11.7087 58.3538C-4.59827 69.7829 11.377 89.5586 28.3749 91.7691C34.7718 92.601 41.3699 91.2712 46.6495 88.8773C34.9003 113.432 -23.8812 85.3029 10.9602 55.5308Z" fill="#DFE9EA"/>
<path fill-rule="evenodd" clip-rule="evenodd" d="M27.3385 101.901L27.3397 101.901C29.4982 102.752 31.7563 103.493 34.0843 104.127L34.0888 104.137C32.1854 107.585 30.282 111.033 28.3786 114.481C36.0637 110.327 40.4905 111.862 41.6826 119.045C34.4157 119.016 27.149 118.988 19.8822 118.96C22.3676 113.274 24.8531 107.588 27.3385 101.901Z" fill="url(#paint2_linear_17405_11443)"/>
<path fill-rule="evenodd" clip-rule="evenodd" d="M60.5591 106.396L60.5605 106.389C62.5007 106.213 64.4375 105.958 66.364 105.627L66.3753 105.633C67.0109 109.11 69.7954 116.059 71.2549 115.163C82.8226 108.055 86.0245 114.309 85.0903 119.062C78.4978 119.093 71.9052 119.125 65.3128 119.156C63.7283 114.903 62.1436 110.649 60.5591 106.396Z" fill="url(#paint3_linear_17405_11443)"/>
<path fill-rule="evenodd" clip-rule="evenodd" d="M48.6107 77.8798C49.7022 108.745 8.18623 100.298 1.09094 80.5027C7.36319 88.7805 21.1301 95.5393 32.4332 95.4856C42.8878 95.436 47.04 86.9614 48.6107 77.8798Z" fill="#B9C5C7"/>
<path fill-rule="evenodd" clip-rule="evenodd" d="M85.7999 20.5034C91.4396 20.5034 99.0967 27.4263 99.4355 35.2386C97.4557 28.0869 91.6872 22.1013 85.8133 22.5639C82.7528 22.8051 80.8513 24.6305 79.6755 27.246C80.2262 23.1446 81.7582 20.5034 85.7999 20.5034Z" fill="#070606"/>
<path fill-rule="evenodd" clip-rule="evenodd" d="M99.0153 40.6907C100.93 46.4695 100.477 49.2423 95.1863 49.2423C94.4348 49.2423 93.6354 49.1824 92.8134 49.0675C92.8815 48.7985 92.9426 48.5339 92.9975 48.2732L92.9966 48.2775C96.1245 47.4455 98.1733 44.737 99.0153 40.6907Z" fill="#EA8888"/>
<path fill-rule="evenodd" clip-rule="evenodd" d="M86.9097 50.4352C87.7173 53.3289 86.9485 56.4134 85.1249 57.7051C84.0478 54.2115 84.834 51.9128 86.9097 50.4352Z" fill="#E2EFF1"/>
<defs>
<linearGradient id="paint0_linear_17405_11443" x1="43.3824" y1="5.24687" x2="59.8665" y2="26.4523" gradientUnits="userSpaceOnUse">
<stop stop-color="#DD2E2E"/>
<stop offset="1" stop-color="#B52424"/>
</linearGradient>
<radialGradient id="paint1_radial_17405_11443" cx="0" cy="0" r="1" gradientUnits="userSpaceOnUse" gradientTransform="translate(79.6319 38.9146) rotate(65.9067) scale(10.7075 12.579)">
<stop stop-color="#FFD64F"/>
<stop offset="1" stop-color="#E3A514"/>
</radialGradient>
<linearGradient id="paint2_linear_17405_11443" x1="28.9681" y1="117.181" x2="30.1604" y2="99.6001" gradientUnits="userSpaceOnUse">
<stop stop-color="#EBB326"/>
<stop offset="1" stop-color="#965D11"/>
</linearGradient>
<linearGradient id="paint3_linear_17405_11443" x1="65.3128" y1="119.156" x2="64.2355" y2="98.6554" gradientUnits="userSpaceOnUse">
<stop stop-color="#E0AD2D"/>
<stop offset="1" stop-color="#965D11"/>
</linearGradient>
</defs>
</svg>
