<svg width="88" height="95" viewBox="0 0 88 95" fill="none" xmlns="http://www.w3.org/2000/svg">
<g clip-path="url(#clip0_20273_47971)">
<path fill-rule="evenodd" clip-rule="evenodd" d="M19.1221 31.6565C18.0865 37.3094 19.82 41.1376 25.4193 41.5276C26.0284 36.6765 29.3841 33.8525 28.5689 28.9477C22.4846 14.1787 38.6799 10.7988 50.3233 19.1612C53.8407 18.9088 57.4002 19.2868 60.9893 20.1058C63.3097 12.9838 73.8646 9.76755 73.8242 18.5994C75.6621 26.8976 80.171 34.6489 79.3378 43.494C83.1057 48.0135 84.2963 53.6121 82.2476 60.5673C85.6915 62.8395 85.6512 64.9647 81.9007 66.9326C86.2071 71.2921 82.6971 75.3417 77.3219 71.8042C49.2368 98.192 -10.6957 79.8469 5.58213 47.8737C5.90787 45.2865 6.6908 42.3348 8.38134 38.6756C9.62725 38.7954 10.3506 39.3875 10.8036 40.2242C9.64918 35.1892 13.2595 32.4388 19.1221 31.6565Z" fill="#EFF8FA"/>
<path fill-rule="evenodd" clip-rule="evenodd" d="M67.717 78.5753C48.9535 88.363 23.7059 85.1354 10.9407 74.3505C16.7928 77.5341 23.9423 78.714 29.5104 76.8499C35.2166 79.1965 41.8944 80.5795 49.3507 80.9284C55.7128 81.2262 61.9266 80.3651 67.717 78.5753ZM5.72656 46.8848C6.11774 44.5368 6.90206 41.877 8.38114 38.6756C8.11716 40.7438 7.98453 42.7427 7.97518 44.6725C7.16027 45.4119 6.40458 46.1499 5.72656 46.8848Z" fill="#CBD3D4"/>
<path fill-rule="evenodd" clip-rule="evenodd" d="M37.7782 10.6569C41.6255 9.98658 31.8736 6.43663 34.4461 4.15165C43.7593 -4.12062 62.4399 -0.378941 59.7619 19.843C56.5883 19.2087 53.4392 18.9377 50.3231 19.1612C38.6797 10.7988 22.4844 14.1787 28.5687 28.9477C28.981 31.4286 28.3261 33.3772 27.4994 35.325C27.6132 22.0119 20.5472 24.6269 20.6256 19.7323C20.6811 16.2763 26.2234 18.3718 27.3734 17.3302C28.9223 15.9272 21.8639 14.5555 26.0046 10.5163C29.3411 7.26157 34.2408 11.2733 37.7782 10.6569Z" fill="url(#paint0_linear_20273_47971)"/>
<path fill-rule="evenodd" clip-rule="evenodd" d="M41.3974 17.5753C49.1863 17.025 52.4652 22.8414 52.4652 30.3541C52.4652 37.8667 46.6793 44.6909 39.9973 44.6909C33.3153 44.6909 27.8984 38.6006 27.8984 31.088C27.8984 23.5754 33.6086 18.1257 41.3974 17.5753Z" fill="#FFEF9E"/>
<path fill-rule="evenodd" clip-rule="evenodd" d="M51.865 25.2413C52.2706 26.8005 52.4652 28.5269 52.4652 30.3541C52.4652 37.8667 46.6793 44.6909 39.9973 44.6909C33.3153 44.6909 27.8984 38.6006 27.8984 31.088C27.8984 26.6583 29.8842 22.9464 33.1102 20.5326C32.8306 21.2304 32.5435 21.992 32.2463 22.8269C28.2095 34.1661 34.9955 40.3402 41.3224 40.3402C47.6493 40.3402 52.4669 33.9983 51.865 25.2413Z" fill="#EBD778"/>
<path fill-rule="evenodd" clip-rule="evenodd" d="M41.3972 17.5753C47.2918 17.1588 50.6027 20.3893 51.8647 25.2413C49.8483 21.6616 46.0321 19.2465 41.6557 19.2465C36.2016 19.2465 30.2206 22.897 28.1123 28.6247C29.2158 22.4067 34.4885 18.0635 41.3972 17.5753Z" fill="#070606"/>
<path fill-rule="evenodd" clip-rule="evenodd" d="M37.2382 16.4889C40.5001 15.8621 43.6186 16.5165 45.7249 18.031C44.474 17.6267 43.0357 17.4595 41.397 17.5753C35.6493 17.9815 31.0342 21.0558 29.0098 25.6579C29.002 25.6221 28.9941 25.5864 28.987 25.5504C28.2139 21.5701 31.9079 17.5131 37.2382 16.4889Z" fill="#DAE5E7"/>
<path d="M35.9385 30.5445C37.2373 30.8371 38.6175 29.6375 39.0212 27.8651C39.425 26.0926 38.6994 24.4185 37.4005 24.1259C36.1017 23.8332 34.7215 25.0328 34.3178 26.8053C33.9141 28.5777 34.6397 30.2518 35.9385 30.5445Z" fill="#443F21"/>
<path fill-rule="evenodd" clip-rule="evenodd" d="M30.273 39.183L30.2728 39.1836C28.9075 42.9061 31.3325 47.0799 38.2919 46.8677C45.2513 46.6556 50.7088 40.2316 51.0927 36.6364L51.0928 36.6347C48.991 41.2838 44.7178 44.6909 39.9967 44.6909C36.0119 44.6909 32.4776 42.5247 30.273 39.183Z" fill="#EA8888"/>
<path fill-rule="evenodd" clip-rule="evenodd" d="M57.5487 34.6462C59.1938 35.1614 57.7239 28.0794 64.3816 28.11C72.233 28.146 76.3134 32.6186 72.6148 41.6387C69.0014 34.0581 58.1345 46.232 54.4651 40.8052C51.3082 36.1364 54.2081 33.6 57.5487 34.6462Z" fill="url(#paint1_radial_20273_47971)"/>
<path fill-rule="evenodd" clip-rule="evenodd" d="M56.0518 42.056L56.0531 42.0538C57.7957 42.6516 60.159 41.7583 62.5932 40.7962L62.5934 40.7963C64.0596 44.5631 59.4333 42.6863 59.2689 45.6564C59.0286 49.9959 57.7556 53.1441 54.9229 51.9379C52.0902 50.7317 51.5037 47.7843 52.7376 45.3762C53.4361 44.0129 55.7547 43.4067 56.0518 42.056Z" fill="#F65251"/>
<path fill-rule="evenodd" clip-rule="evenodd" d="M59.9625 44.2488C62.9544 46.0703 66.6156 47.3467 70.8949 46.4063C70.3749 49.8439 66.915 52.5974 63.0197 51.0662C61.6595 50.5315 60.2303 49.5716 58.9379 48.3972C59.1058 47.5702 59.2142 46.6442 59.2689 45.6564C59.3068 44.9732 59.5811 44.5468 59.9625 44.2488ZM55.0959 43.3102C54.7084 42.4361 54.4809 41.5834 54.4658 40.8052C54.9012 41.4493 55.4383 41.8446 56.0525 42.055L56.0519 42.056C55.9435 42.5489 55.5658 42.9426 55.0959 43.3102Z" fill="#DA9A15"/>
<path fill-rule="evenodd" clip-rule="evenodd" d="M70.0551 39.2534C67.3206 40.4652 66.2294 42.7214 67.8581 46.7225H67.8499L67.0255 46.6862C64.3692 46.4854 62.0094 45.4947 59.9629 44.2488C61.2401 43.2514 63.7228 43.6966 62.5938 40.7963L62.5937 40.7962C65.2333 39.7537 67.9548 38.6335 70.0551 39.2534Z" fill="#2F2F2F"/>
<path fill-rule="evenodd" clip-rule="evenodd" d="M84.2409 62.3338L84.2414 62.3343C88.5413 54.0573 88.9992 47.6964 79.3379 43.494C83.1058 48.0135 84.2964 53.6121 82.2477 60.5673C83.1557 61.1664 83.8214 61.7554 84.2409 62.3338Z" fill="#B9C5C7"/>
<path fill-rule="evenodd" clip-rule="evenodd" d="M68.0095 16.2236C72.5315 16.2236 78.6932 21.8484 78.807 28.1305C78.9055 33.5645 77.1156 37.2925 73.7039 38.2001C75.1286 31.4812 71.1618 28.1411 64.3818 28.11C63.9252 28.1079 63.5082 28.1404 63.1243 28.2004C63.0016 27.5022 62.9355 26.8034 62.9355 26.1173C62.9355 20.4013 63.4874 16.2236 68.0095 16.2236Z" fill="#FFEF9E"/>
<path fill-rule="evenodd" clip-rule="evenodd" d="M78.1303 33.4803C77.329 35.9704 75.8319 37.634 73.7039 38.2001C73.9356 37.1078 74.0239 36.1054 73.9815 35.1914C75.5128 35.1162 76.9342 34.4969 78.1303 33.4803ZM65.7236 28.1628C65.2897 28.1301 64.8425 28.112 64.3818 28.11C63.9252 28.1079 63.5082 28.1404 63.1243 28.2004C63.0016 27.5022 62.9355 26.8034 62.9355 26.1173C62.9355 21.2153 63.3416 17.4449 66.3093 16.4704C65.2543 18.1238 64.8754 20.6317 64.8754 23.7027C64.8754 25.2157 65.1851 26.7405 65.7236 28.1628Z" fill="#EBD778"/>
<path fill-rule="evenodd" clip-rule="evenodd" d="M69.0241 14.9679C70.789 14.9679 72.2834 16.2053 72.7897 17.913C71.2036 16.8483 69.5155 16.2236 68.0092 16.2236C67.1681 16.2236 66.4644 16.3683 65.876 16.6405C66.5973 15.6243 67.7388 14.9679 69.0241 14.9679Z" fill="#DAE5E7"/>
<path d="M77.2845 28.6642C78.2694 28.3356 78.6468 26.8215 78.1276 25.2822C77.6084 23.743 76.3891 22.7616 75.4043 23.0902C74.4195 23.4188 74.042 24.933 74.5612 26.4722C75.0804 28.0114 76.2997 28.9929 77.2845 28.6642Z" fill="#443F21"/>
<path d="M63.834 31.9336C64.9004 31.3544 65.47 30.3475 65.106 29.6846C64.7421 29.0217 63.5825 28.9538 62.516 29.5329C61.4495 30.1121 60.88 31.119 61.244 31.7819C61.6079 32.4449 62.7675 32.5128 63.834 31.9336Z" fill="#FFE872"/>
<path fill-rule="evenodd" clip-rule="evenodd" d="M60.077 63.0866C64.5334 62.5237 68.0506 61.1389 70.1533 59.7457C71.9294 59.1253 71.4548 64.0198 69.9601 65.1578C68.0374 66.6217 66.8719 62.2701 65.9136 62.6122C65.219 62.8603 65.7072 68.5031 62.6499 69.0757C59.5926 69.6483 59.3129 63.183 60.077 63.0866Z" fill="#E2EFF1"/>
<path fill-rule="evenodd" clip-rule="evenodd" d="M61.6035 28.6537V28.6539C58.1382 30.2971 58.9097 35.0726 57.5484 34.6462C56.7412 34.3934 55.9601 34.3504 55.2837 34.4955C57.4801 29.8316 59.1966 26.964 61.6035 28.6537ZM58.9369 48.3972C60.2293 49.5716 61.6585 50.5315 63.0187 51.0662C58.432 53.7672 53.5093 59.2399 48.4776 55.7887C46.14 54.1855 49.2197 47.2165 52.4955 40.4643C52.7949 39.8471 53.083 39.2391 53.3618 38.6434C53.577 39.2996 53.9353 40.0223 54.4648 40.8052C54.5223 40.8901 54.5806 40.977 54.4648 40.8052C54.4799 41.5834 54.7074 42.4361 55.0949 43.3102C54.2772 43.9499 53.1802 44.5104 52.7366 45.3762C51.5027 47.7843 52.0893 50.7317 54.922 51.9379C57.1099 52.8684 58.3664 51.203 58.9369 48.3972Z" fill="#E2EFF1"/>
<path fill-rule="evenodd" clip-rule="evenodd" d="M8.79211 43.9393L16.6359 50.6194C18.0348 49.0879 19.4337 47.5562 20.8326 46.0246C26.4063 48.8535 31.9799 51.6826 37.5536 54.5115C48.0406 98.1566 -24.0028 71.9627 8.79211 43.9393Z" fill="white"/>
<path fill-rule="evenodd" clip-rule="evenodd" d="M8.79192 43.9393L16.6357 50.6194C18.0346 49.0879 19.4335 47.5562 20.8324 46.0246L37.4288 54.4482C33.0538 52.4447 27.189 50.1093 21.2996 47.6076L16.778 52.1826L9.38418 46.1731C-3.51887 55.2164 9.12169 70.8642 22.5715 72.6133C27.6331 73.2715 32.8539 72.2193 37.0314 70.3251C27.7348 89.7547 -18.7767 67.4968 8.79192 43.9393Z" fill="#DFE9EA"/>
<path fill-rule="evenodd" clip-rule="evenodd" d="M21.7515 80.6306L21.7524 80.63C23.4604 81.3039 25.247 81.8897 27.0891 82.3918L27.0927 82.3992C25.5866 85.1275 24.0805 87.8557 22.5745 90.5841C28.6553 87.2972 32.1581 88.5116 33.1013 94.1953C27.3514 94.173 21.6015 94.1506 15.8516 94.1282C17.8182 89.6289 19.7848 85.1298 21.7515 80.6306Z" fill="url(#paint2_linear_20273_47971)"/>
<path fill-rule="evenodd" clip-rule="evenodd" d="M48.0371 84.1867L48.0383 84.1817C49.5734 84.042 51.106 83.8403 52.6303 83.5782L52.6393 83.5832C53.1422 86.3348 55.3454 91.8331 56.5003 91.1236C65.6534 85.4997 68.1869 90.4483 67.4477 94.209C62.2313 94.2338 57.0149 94.2587 51.7985 94.2835C50.5447 90.9179 49.2909 87.5523 48.0371 84.1867Z" fill="url(#paint3_linear_20273_47971)"/>
<path fill-rule="evenodd" clip-rule="evenodd" d="M38.5829 61.6232C39.4466 86.0453 6.59664 79.362 0.982422 63.6986C5.94541 70.2485 16.8386 75.5964 25.7823 75.554C34.0546 75.5147 37.3401 68.8091 38.5829 61.6232Z" fill="#B9C5C7"/>
<path fill-rule="evenodd" clip-rule="evenodd" d="M68.01 16.2236C72.4725 16.2236 78.5312 21.7014 78.7994 27.8829C77.2328 22.2241 72.6684 17.4879 68.0206 17.8539C65.599 18.0447 64.0944 19.4892 63.1641 21.5587C63.5998 18.3134 64.812 16.2236 68.01 16.2236Z" fill="#070606"/>
<path fill-rule="evenodd" clip-rule="evenodd" d="M78.4669 32.197C79.982 36.7695 79.6238 38.9635 75.4372 38.9635C74.8425 38.9635 74.21 38.9161 73.5596 38.8252C73.6135 38.6123 73.6618 38.4029 73.7052 38.1967L73.7046 38.2001C76.1795 37.5417 77.8007 35.3986 78.4669 32.197Z" fill="#EA8888"/>
<path fill-rule="evenodd" clip-rule="evenodd" d="M68.8873 39.9074C69.5263 42.1971 68.918 44.6377 67.475 45.6598C66.6227 42.8954 67.2449 41.0765 68.8873 39.9074Z" fill="#E2EFF1"/>
</g>
<defs>
<linearGradient id="paint0_linear_20273_47971" x1="34.4461" y1="4.15165" x2="47.4893" y2="20.9307" gradientUnits="userSpaceOnUse">
<stop stop-color="#DD2E2E"/>
<stop offset="1" stop-color="#B52424"/>
</linearGradient>
<radialGradient id="paint1_radial_20273_47971" cx="0" cy="0" r="1" gradientUnits="userSpaceOnUse" gradientTransform="translate(63.1286 30.7916) rotate(65.9067) scale(8.47243 9.95329)">
<stop stop-color="#FFD64F"/>
<stop offset="1" stop-color="#E3A514"/>
</radialGradient>
<linearGradient id="paint2_linear_20273_47971" x1="23.0409" y1="92.721" x2="23.9843" y2="78.8096" gradientUnits="userSpaceOnUse">
<stop stop-color="#EBB326"/>
<stop offset="1" stop-color="#965D11"/>
</linearGradient>
<linearGradient id="paint3_linear_20273_47971" x1="51.7985" y1="94.2835" x2="50.9462" y2="78.0621" gradientUnits="userSpaceOnUse">
<stop stop-color="#E0AD2D"/>
<stop offset="1" stop-color="#965D11"/>
</linearGradient>
<clipPath id="clip0_20273_47971">
<rect width="87.0387" height="94.16" fill="white" transform="translate(0.120117)"/>
</clipPath>
</defs>
</svg>
