<svg width="16" height="16" viewBox="0 0 16 16" fill="none" xmlns="http://www.w3.org/2000/svg">
<path d="M8.02334 7.02781C7.98238 7.01515 7.94262 7.00215 7.90406 6.9888C7.73766 6.9312 7.60006 6.864 7.49126 6.7872C7.38886 6.7104 7.30886 6.624 7.25126 6.528C7.19366 6.4256 7.16486 6.3104 7.16486 6.1824C7.16486 6.016 7.21286 5.8752 7.30886 5.76C7.40486 5.6384 7.53606 5.5456 7.70246 5.4816C7.79583 5.44702 7.8976 5.42179 8.00778 5.40589L8.02334 7.02781Z" fill="white" fill-opacity="0.8"/>
<path d="M8.92166 10.0416C8.81675 10.0791 8.70525 10.1056 8.58718 10.1211L8.57137 8.44182C8.70764 8.48402 8.8308 8.53408 8.94086 8.592C9.06246 8.65601 9.16486 8.7264 9.24806 8.8032C9.33126 8.8736 9.39206 8.9568 9.43046 9.0528C9.47526 9.1424 9.49766 9.24161 9.49766 9.3504C9.49766 9.50401 9.44646 9.6416 9.34406 9.76321C9.24166 9.87841 9.10086 9.9712 8.92166 10.0416Z" fill="white" fill-opacity="0.8"/>
<path fill-rule="evenodd" clip-rule="evenodd" d="M8 16C12.4183 16 16 12.4183 16 8C16 3.58172 12.4183 0 8 0C3.58172 0 0 3.58172 0 8C0 12.4183 3.58172 16 8 16ZM8.5974 11.2068L8.60486 12H7.65446L7.66158 11.185C7.31528 11.1374 6.9993 11.0442 6.71366 10.9056C6.27846 10.6944 5.90726 10.384 5.60006 9.9744L6.33926 9.00481C6.66566 9.4272 6.98246 9.7216 7.28966 9.888C7.41096 9.95371 7.53825 10.0064 7.67152 10.0462L7.68742 8.22645C7.35866 8.1385 7.07567 8.02675 6.83846 7.8912C6.53126 7.7056 6.30086 7.4752 6.14726 7.2C5.99366 6.9248 5.91686 6.6016 5.91686 6.2304C5.91686 5.9488 5.97766 5.6896 6.09926 5.4528C6.22726 5.216 6.40006 5.0112 6.61766 4.8384C6.83526 4.6656 7.08806 4.5312 7.37606 4.4352C7.57268 4.36967 7.77973 4.3265 7.99723 4.3057L7.99046 3.6H8.94086L8.93427 4.34166C9.20982 4.38838 9.46482 4.46757 9.69926 4.5792C10.1025 4.7648 10.4353 5.0432 10.6977 5.4144L9.98726 6.2784C9.76966 5.984 9.51686 5.7632 9.22886 5.616C9.13041 5.5623 9.02883 5.51799 8.92412 5.48306L8.90843 7.2484C9.09054 7.30086 9.26135 7.36152 9.42086 7.4304C9.70246 7.5456 9.94246 7.6864 10.1409 7.8528C10.3393 8.0128 10.4897 8.1984 10.5921 8.4096C10.6945 8.6144 10.7457 8.8448 10.7457 9.1008C10.7457 9.5424 10.6401 9.92321 10.4289 10.2432C10.2241 10.5568 9.93286 10.8 9.55526 10.9728C9.27199 11.0976 8.9527 11.1756 8.5974 11.2068Z" fill="white" fill-opacity="0.8"/>
</svg>
