<svg width="73" height="89" viewBox="0 0 73 89" fill="none" xmlns="http://www.w3.org/2000/svg">
<path d="M36.1656 3.87628C54.0676 3.87628 68.5781 35.2505 68.5781 53.1746C68.5781 71.0988 54.0676 85.5771 36.1656 85.5771C18.2636 85.5771 3.75293 71.071 3.75293 53.1746C3.75293 35.2783 18.2636 3.87628 36.1656 3.87628Z" fill="#EFAF1A"/>
<path d="M36.0543 3.87628C29.4662 3.76512 24.9351 7.04427 22.9892 8.85058C18.3191 13.2969 11.9534 22.523 8.5064 30.5263C4.92045 38.8353 3.03015 61.9839 34.1918 61.3725C65.3535 60.7611 63.9359 30.832 56.5416 17.2152C56.5416 17.2152 48.7303 4.0986 36.0265 3.8485L36.0543 3.87628Z" fill="#FFD02E"/>
<path d="M37.194 20.5499C36.2766 19.0215 37.4442 16.8261 38.8619 15.8257C40.6687 14.5474 43.5597 14.6863 44.4215 16.1036C45.4222 17.7154 43.7821 20.9111 41.3637 21.6615C40.0294 22.0783 38.0001 21.8838 37.194 20.5499Z" fill="#FFF37C"/>
<path d="M20.238 19.9941C17.486 16.2981 20.4326 8.76722 25.7976 6.37733C29.4392 4.76555 34.693 5.29355 36.6389 8.32259C39.1685 12.2687 35.4714 19.5773 29.9674 21.6615C26.854 22.8286 22.2395 22.6897 20.238 19.9941Z" fill="#FFF37C"/>
<path d="M36.2217 3.0426C54.5684 3.0426 69.4404 34.8614 69.4404 53.0079C69.4404 71.1544 54.5684 85.8549 36.2217 85.8549C17.8749 85.8549 3.00293 71.1544 3.00293 53.0079C3.00293 34.8614 17.8749 3.0426 36.2217 3.0426Z" stroke="#FEEB6B" stroke-width="5.04455"/>
<path d="M57.8763 57.5931C54.7629 57.482 55.1243 63.8458 41.948 67.5695C23.8514 72.7106 17.9582 63.9291 18.6254 71.2655C19.7929 83.743 38.8902 83.3817 44.9502 81.4364C66.3269 74.6002 60.9897 57.7043 57.8763 57.5931Z" fill="#E8C133"/>
</svg>
