<svg width="89" height="88" viewBox="0 0 89 88" fill="none" xmlns="http://www.w3.org/2000/svg">
<circle cx="44.1507" cy="43.97" r="43.97" fill="#303550"/>
<path d="M9.37491 64.0482C-1.71395 44.8417 4.86668 20.2825 24.0732 9.19363C43.2796 -1.89523 67.8388 4.68539 78.9277 23.8919C90.0166 43.0983 83.436 67.6576 64.2295 78.7464C45.023 89.8353 20.4638 83.2547 9.37491 64.0482Z" fill="url(#paint0_linear_20273_48386)"/>
<path d="M44.1514 84.1331C49.4257 84.1331 54.6483 83.0942 59.5211 81.0758C64.3939 79.0575 68.8214 76.0991 72.5509 72.3696L44.1514 43.97L44.1514 84.1331Z" fill="#F34970"/>
<path d="M44.1505 3.807C38.8762 3.807 33.6536 4.84584 28.7808 6.86423C23.908 8.88261 19.4805 11.841 15.751 15.5705L44.1505 43.97L44.1505 3.807Z" fill="#FB8B8C"/>
<circle cx="44.1505" cy="43.97" r="34.213" fill="#87114B"/>
<circle cx="44.1509" cy="43.97" r="30.4942" transform="rotate(150 44.1509 43.97)" fill="url(#paint1_linear_20273_48386)"/>
<path d="M54.8096 38.6745L54.8096 38.6745C54.9295 38.6497 55.5443 38.5358 56.1085 38.5147C56.335 38.5062 56.7942 38.4972 57.1983 38.6593C57.4096 38.744 57.8785 38.9873 58.057 39.5698C58.234 40.1477 57.989 40.6156 57.8508 40.8229C57.6886 41.0669 57.4869 41.2174 57.3417 41.3057C57.1942 41.3954 57.0531 41.4521 56.9571 41.4868C56.8673 41.5193 56.7798 41.5452 56.7313 41.5596L56.7214 41.5626C56.6904 41.5718 56.6755 41.5765 56.6708 41.5779L56.6701 41.5782C56.123 41.7875 55.8009 42.0919 55.5927 42.4408C55.3714 42.8116 55.2385 43.3033 55.2045 43.9192C55.135 45.1782 55.4906 46.6538 55.8717 47.893L54.8096 38.6745ZM54.8096 38.6745L54.7971 38.6772C53.5384 38.9509 52.3127 39.5868 51.4834 40.6883M54.8096 38.6745L51.4834 40.6883M51.4834 40.6883C51.5539 40.4947 51.6224 40.3003 51.6819 40.1167L51.6828 40.1139C52.0394 39.0052 52.3535 37.8713 52.5799 36.6929C53.3257 32.8578 53.1919 28.118 50.1984 24.7322C49.957 24.4565 49.5228 23.9882 49.0308 23.5742C48.7845 23.3669 48.4967 23.1502 48.1898 22.9774C47.9026 22.8157 47.4875 22.6281 47.0105 22.6117L47.0105 22.6117L47.0023 22.6115C46.7389 22.6042 45.9245 22.6654 45.603 23.4938C45.4784 23.8151 45.5039 24.1038 45.5344 24.2687C45.5662 24.4405 45.6226 24.5813 45.665 24.6737C45.796 24.9598 46.0619 25.306 46.0572 25.2974C46.2551 25.5846 46.4207 25.8951 46.5469 26.2178L46.5473 26.2188C47.3046 28.1511 46.8033 29.8722 45.6065 31.5865C44.5779 33.0599 43.1479 34.3712 41.7565 35.6471C41.4704 35.9095 41.186 36.1703 40.907 36.4308L40.9063 36.4314C39.6734 37.584 38.6337 38.7922 37.7002 40.1299C37.468 39.6531 37.1672 39.1671 36.7921 38.7583C35.7832 37.6534 34.2849 36.8127 32.5661 36.9259L32.5651 36.9259C32.4157 36.9359 32.2041 36.9761 32.0314 37.0149C32.0306 37.015 32.0295 37.0152 32.0281 37.0155C31.98 37.0239 31.5537 37.0986 31.2284 37.2449C31.0518 37.3243 30.7036 37.5063 30.4647 37.8881C30.1663 38.3647 30.1865 38.9007 30.3787 39.3299L30.3793 39.3314C30.6569 39.9492 31.2006 40.1499 31.4502 40.2181C31.5631 40.249 31.6737 40.2682 31.7235 40.2768C31.7275 40.2775 31.7312 40.2782 31.7344 40.2787C31.7548 40.2823 31.7681 40.2848 31.7759 40.2863C32.582 40.5426 32.9386 41.0365 33.1079 41.7295C33.302 42.5244 33.2242 43.5464 33.021 44.6033L33.0207 44.6049C32.8406 45.5482 32.5784 46.4907 32.2944 47.4779C32.2651 47.5798 32.2355 47.6823 32.2057 47.7853C31.9522 48.6638 31.6869 49.5828 31.4811 50.5065C31.0168 52.59 30.8169 54.848 31.6895 57.2367L31.6896 57.2368C33.691 62.7143 39.8755 66.0613 45.5011 65.1307C46.9665 64.8903 48.705 64.4109 50.1078 63.6561L50.109 63.6555C51.4907 62.9102 53.064 61.8621 54.2216 60.6306C55.7311 59.0278 56.6887 56.978 56.9713 54.8088C57.2845 52.4422 56.5942 50.2201 55.9992 48.3049C55.9561 48.166 55.9135 48.0287 55.8717 47.8932L51.4834 40.6883ZM48.8013 25.0785C48.9839 25.2635 49.1403 25.4354 49.253 25.5641C51.8629 28.514 52.0613 32.7642 51.3434 36.454L48.8013 25.0785ZM48.8013 25.0785C48.6155 24.648 48.3868 24.2375 48.1223 23.8556L48.1224 23.8555L48.1178 23.849C48.0951 23.8166 48.0674 23.7791 48.0492 23.7544C48.0463 23.7505 48.0437 23.7469 48.0413 23.7437C48.019 23.7134 48.0007 23.6882 47.9838 23.6641C47.9573 23.6261 47.9475 23.609 47.9473 23.6091C47.9472 23.6092 47.9501 23.6146 47.9548 23.6249C47.9617 23.64 47.9918 23.7065 48.011 23.8105C48.0158 23.8364 48.0212 23.8715 48.0246 23.9143C48.0249 23.9171 48.0251 23.9199 48.0253 23.9228C48.0327 24.0271 48.0276 24.1742 47.9737 24.3412M48.8013 25.0785L47.9737 24.3412M47.9737 24.3412C47.8817 24.2721 47.7892 24.2075 47.6975 24.1497C47.696 24.1488 47.6946 24.1479 47.6931 24.147C47.4362 23.9857 47.1851 23.8778 46.9673 23.8703C46.6285 23.8609 46.7926 24.1575 46.9497 24.3828L46.9397 24.6743L47.9737 24.3412ZM47.7331 25.7937C47.7234 25.7843 47.7135 25.775 47.7037 25.7656C47.7037 25.7656 47.7037 25.7656 47.7037 25.7656C47.6085 25.6753 47.5094 25.5857 47.4091 25.5013C47.2308 25.3512 47.0756 25.2405 46.9541 25.1721C46.8793 25.13 46.8444 25.1193 46.8445 25.1191C46.8445 25.1189 46.8722 25.1271 46.9241 25.1289L46.9397 24.6757L47.7331 25.7937ZM47.7331 25.7937C49.4695 30.2914 45.6302 33.8078 42.5759 36.6053C42.2979 36.8598 42.0265 37.1084 41.7663 37.3513L47.7331 25.7937ZM47.0869 24.5724C47.189 24.7198 47.2846 24.8723 47.3729 25.0291L46.9529 24.3874C46.9826 24.4299 47.0119 24.4696 47.0374 24.5042C47.0566 24.5302 47.0736 24.5533 47.0869 24.5724ZM56.3907 41.0345C56.3906 41.0346 56.3879 41.0343 56.3829 41.0335C56.3883 41.034 56.3908 41.0345 56.3907 41.0345Z" fill="#FB8B8C" stroke="#87114B" stroke-width="2.51864"/>
<path d="M45.4748 57.195C46.1422 57.7554 47.0773 57.4815 47.7069 57.003C48.0438 56.7479 48.3335 56.4205 48.5224 56.0396C48.6011 55.8759 48.6924 55.6681 48.6924 55.4823C48.6924 55.2336 48.5444 54.9881 48.6074 54.733C49.1363 54.6291 49.7911 56.1498 49.8572 56.5024C50.3861 59.2823 47.7668 61.5743 45.2387 62.0182C40.9727 62.7643 38.5202 59.0273 39.0113 55.709C39.3167 53.6437 40.702 52.2238 42.1124 50.8071C43.2804 49.6328 44.3635 48.6253 44.7413 47.0984C44.8074 46.8277 44.7916 46.4121 44.7129 46.1445C44.6468 45.9147 44.5209 45.7037 44.5146 45.455C44.4957 44.9324 45.0026 45.6156 45.119 45.7478C46.5232 47.3314 46.923 49.6706 46.5484 51.717C46.306 53.0393 45.3615 53.9837 45.0309 55.2494C44.8388 55.9703 44.8577 56.6724 45.4748 57.195Z" fill="#D63579"/>
<defs>
<linearGradient id="paint0_linear_20273_48386" x1="64.2295" y1="78.7464" x2="24.0732" y2="9.19365" gradientUnits="userSpaceOnUse">
<stop offset="0.5" stop-color="#D63579"/>
<stop offset="0.5" stop-color="#F34970"/>
</linearGradient>
<linearGradient id="paint1_linear_20273_48386" x1="44.1509" y1="13.4758" x2="44.1509" y2="74.4642" gradientUnits="userSpaceOnUse">
<stop offset="0.5" stop-color="#D63579"/>
<stop offset="0.5" stop-color="#F34872"/>
</linearGradient>
</defs>
</svg>
