<svg width="89" height="88" viewBox="0 0 89 88" fill="none" xmlns="http://www.w3.org/2000/svg">
<circle cx="44.2102" cy="43.97" r="43.97" fill="#303550"/>
<path d="M9.43351 64.0482C-1.65536 44.8417 4.92527 20.2825 24.1317 9.19363C43.3382 -1.89523 67.8974 4.68539 78.9863 23.8919C90.0752 43.0983 83.4946 67.6576 64.2881 78.7464C45.0816 89.8353 20.5224 83.2547 9.43351 64.0482Z" fill="url(#paint0_linear_20273_48361)"/>
<path d="M44.21 84.1331C49.4842 84.1331 54.7069 83.0942 59.5797 81.0758C64.4525 79.0575 68.88 76.0991 72.6095 72.3696L44.21 43.97L44.21 84.1331Z" fill="#F8CD2E"/>
<path d="M44.2091 3.807C38.9348 3.807 33.7122 4.84584 28.8394 6.86423C23.9666 8.88261 19.5391 11.841 15.8096 15.5705L44.2091 43.97L44.2091 3.807Z" fill="#F9EE7A"/>
<circle cx="44.209" cy="43.97" r="34.213" fill="#94671A"/>
<circle cx="44.2094" cy="43.97" r="30.4942" transform="rotate(150 44.2094 43.97)" fill="url(#paint1_linear_20273_48361)"/>
<path fill-rule="evenodd" clip-rule="evenodd" d="M47.912 35.7178C46.9148 35.1314 46.6527 34.9453 46.607 34.267C47.2213 34.3638 47.8915 34.9864 48.4144 35.5113C49.2863 35.2024 49.6475 34.6498 50.1958 35.0413C49.6262 35.6878 49.4974 35.4626 48.8851 35.8661C50.1252 36.745 49.686 35.5763 51.2683 35.6346C50.7593 36.3155 50.4026 36.1075 49.8871 36.691C50.5194 37.3165 50.5125 36.9928 50.6056 37.6462C50.024 37.4162 49.6363 36.8518 49.0029 37.0334C48.9628 37.36 48.8685 36.9367 49.1038 37.3008C49.2437 37.5172 49.1095 37.2982 49.3499 37.5859C49.8513 38.186 49.6401 37.7407 49.7935 38.27C47.7507 37.7655 49.6313 36.8631 46.6012 38.1089C46.79 37.3956 47.2511 37.3971 47.9158 37.0723C47.5154 36.8028 47.7758 37.0493 47.4035 36.5352C46.675 36.8603 45.7456 37.556 45.1645 37.1071L46.8916 36.2126C46.3443 35.9776 46.6251 35.8226 45.4382 35.2368C45.7618 34.8711 44.8684 34.2556 46.2619 35.0767C46.3123 35.1063 46.7131 35.5174 46.8332 35.6083C47.2587 35.9304 47.3527 36.0064 47.912 35.7178ZM35.2558 36.873C35.5663 37.3243 35.5756 36.9855 35.1285 37.7839C34.9707 38.0655 34.8173 38.331 34.6163 38.6301L33.61 38.3406C32.9268 38.3406 32.2099 38.3206 31.5301 38.342C30.6636 38.3694 30.5405 38.5261 30.1718 38.3406C29.7439 38.8742 30.2197 38.4903 29.5337 38.8127C29.2585 38.9421 29.1361 38.9547 28.8379 39.1233C28.2808 39.4382 28.0408 39.6465 27.443 39.9892L26.8262 40.8036L26.9803 41.2222C28.3816 40.6363 27.4216 40.6577 28.5977 39.9273C30.8773 38.5116 33.9477 38.9292 36.089 40.0089C36.1243 40.0268 36.4564 40.209 36.4882 40.2269L37.8368 41.1227C38.5639 41.6159 38.4451 41.3585 38.9949 42.023C39.0217 42.0554 39.0541 42.1078 39.0807 42.1403L41.3948 44.5268C41.415 44.5249 41.4382 44.4698 41.4431 44.4897C41.561 44.9652 41.3875 44.4028 41.686 44.4626C41.7066 44.4668 41.7831 44.5025 41.8018 44.5076C41.8242 44.5137 41.8957 44.541 41.9377 44.5671C43.0564 46.2534 43.8824 48.7267 43.0123 50.9744C47.5019 52.2635 48.7823 53.0312 54.0696 53.2359C54.7772 52.8146 55.8797 51.4874 56.3875 50.5584L53.7074 48.8779C53.2957 48.5674 53.0583 48.8405 53.3129 48.08C53.8972 47.1964 55.4092 48.8913 57.0497 49.9131C57.4408 49.3498 57.9203 48.897 58.3372 48.2903C58.6731 47.8016 59.1067 46.5448 59.7946 46.925C60.4761 47.3017 59.5527 48.3601 59.2279 48.7825L57.8574 50.4643C58.1632 51.0549 58.6906 51.4951 59.3619 51.7643C59.9833 51.1173 60.722 50.7744 61.2813 50.2145C61.8057 49.6894 62.4248 48.8728 62.8315 48.0544C63.8537 45.9972 64.2638 44.4841 63.9478 41.8525C63.2894 40.0002 59.6599 38.9904 58.3401 38.4934C57.0838 38.0203 57.7527 36.9148 54.0571 34.7528L53.2966 34.1675C52.563 34.1523 51.0766 33.5907 50.5147 33.1854C48.9669 33.1535 47.8648 32.6256 45.958 32.7825C44.5278 32.9003 43.0651 33.2149 41.86 33.6228C40.25 34.1677 36.1133 35.7918 35.2558 36.873Z" fill="#CE9629"/>
<path fill-rule="evenodd" clip-rule="evenodd" d="M30.9582 41.7159C31.7535 41.3353 31.1318 41.0303 31.5551 40.1175L31.8505 41.5576C32.8558 41.3831 32.7431 41.4965 32.9745 41.7163C32.3874 41.9996 32.1661 41.7749 31.8287 42.2586C32.2779 42.5228 31.5111 42.2565 32.2115 42.3502C33.1113 42.4706 32.495 42.1293 33.141 42.4648C32.702 42.8617 32.5679 42.7689 31.846 42.9764C31.8614 43.2099 31.9077 43.4767 31.8649 43.7111C31.7399 44.3946 31.8414 44.0797 31.5551 44.3781C31.1597 43.2127 31.7691 43.2518 30.9383 43.1137C30.379 43.8452 30.9259 44.0499 30.5271 44.8978C30.1032 44.4761 30.2201 44.0577 30.2634 43.2578C29.4663 43.4079 29.2657 43.6296 28.5488 43.2896L29.5851 42.8863C30.3699 42.6263 29.9929 43.052 30.2492 42.4648C29.4868 42.3047 29.2299 42.7631 28.5265 42.448C28.9781 41.9004 29.2993 42.0322 30.1398 41.8472C30.4767 41.1027 30.1053 41.0958 30.5271 40.3665L30.7823 41.2105C30.8815 41.6175 30.5607 41.4897 30.9582 41.7159ZM26.9805 41.2222C27.1992 46.0062 28.7161 49.3488 33.4654 51.0626C36.4535 52.1408 40.4462 51.8728 41.6312 48.2615C42.0592 46.9572 41.6104 45.672 41.9378 44.5671C41.8958 44.541 41.8243 44.5137 41.802 44.5076C41.7833 44.5025 41.7067 44.4668 41.6861 44.4626C41.3877 44.4028 41.5611 44.9652 41.4433 44.4897C41.4384 44.4698 41.4152 44.5249 41.3949 44.5269L39.0808 42.1403C39.0543 42.1078 39.0218 42.0554 38.995 42.023C38.4453 41.3585 38.564 41.616 37.8369 41.1227L36.4883 40.2269C36.4565 40.2091 36.1245 40.0268 36.0891 40.0089C33.9479 38.9292 30.8775 38.5116 28.5978 39.9273C27.4217 40.6577 28.3817 40.6363 26.9805 41.2222Z" fill="#B88522"/>
<path fill-rule="evenodd" clip-rule="evenodd" d="M59.3617 51.7643C59.6731 52.3646 59.7517 52.119 60.1535 52.7752C60.0082 53.1162 60.083 53.0936 59.8516 53.3341C59.9322 53.4405 60.6433 52.8879 59.9259 53.793C59.7385 54.0295 59.714 53.938 59.478 53.8497C59.0068 53.6735 58.0328 52.1207 56.9057 52.5716C55.7067 53.0513 55.0732 55.374 53.6566 54.7382C53.4366 53.8964 53.5567 54.6074 53.889 54.3561C53.8765 54.3381 53.6215 53.8613 53.5889 53.8062C53.8035 53.5776 53.8933 53.4486 54.0693 53.2358C48.7821 53.0312 47.5016 52.2635 43.0121 50.9744C42.817 51.5899 42.7816 51.698 42.376 52.2783C42.1669 52.5774 42.1396 52.6121 41.9107 52.8584L39.3915 54.8673C38.3418 55.4459 34.3624 55.011 33.1862 55.1464C32.0104 55.2819 34.3245 54.9166 32.7775 55.2266C32.7775 55.2266 27.7171 47.2408 32.3782 55.3612C37.0394 63.4817 69.5596 66.7135 65.6848 44.1914C64.3721 36.5616 63.9514 38.5058 63.7019 38.2331C63.2149 37.7009 63.9476 41.8525 63.9476 41.8525C64.2636 44.4841 63.8535 45.9972 62.8313 48.0544C62.4246 48.8728 61.8055 49.6894 61.2811 50.2145C60.7218 50.7744 59.9831 51.1172 59.3617 51.7643Z" fill="#B18226"/>
<path fill-rule="evenodd" clip-rule="evenodd" d="M43.0127 50.9744C43.8828 48.7267 43.0568 46.2534 41.9381 44.5671C41.6106 45.672 42.0594 46.9572 41.6314 48.2615C40.4465 51.8728 36.4537 52.1408 33.4656 51.0625C28.7164 49.3488 27.1994 46.0062 26.9807 41.2222L26.8265 40.8036C23.408 46.1093 26.8282 52.2136 31.2315 54.7498C35.0729 56.7914 41.5331 55.6409 43.0127 50.9744Z" fill="#94671A"/>
<path fill-rule="evenodd" clip-rule="evenodd" d="M26.8262 38.4106C27.4988 38.2203 27.8754 38.2714 28.4243 38.0828L29.6324 37.3096C28.2585 34.7738 29.342 36.1147 29.8745 33.7512C30.716 30.016 26.7007 29.3724 26.6206 32.9792C26.1643 32.6439 25.2943 30.7953 23.6896 30.5425C21.9406 30.2669 18.6942 33.0986 23.873 35.7348C25.0488 36.3334 25.7221 36.3312 26.0628 36.8373C26.3499 37.2637 26.184 37.487 26.8262 38.4106Z" fill="#F9EE7A"/>
<path fill-rule="evenodd" clip-rule="evenodd" d="M49.2369 29.0612C48.5748 28.6165 47.8884 27.6238 47.1113 27.4468C45.8884 27.1681 45.1605 28.2161 45.3287 29.4461C45.543 31.0137 47.2822 31.7406 48.6371 31.9298C49.8265 32.0958 49.2521 31.9226 50.0593 32.6328C51.257 32.6511 52.3215 32.9944 53.1417 32.1543C52.9202 31.8201 52.6993 31.5572 52.4535 31.1967C51.4202 29.6817 52.8751 29.0608 51.4986 26.9991C49.794 26.9991 49.2369 27.3325 49.2369 29.0612Z" fill="#F9EE7A"/>
<path fill-rule="evenodd" clip-rule="evenodd" d="M55.4043 32.9792C56.2113 33.857 54.4061 32.4274 55.9171 33.2304L56.1713 33.3767C55.5203 34.5327 56.8864 35.5554 57.463 36.0767L62.9688 39.6288C64.2153 40.2978 64.9547 40.8031 66.4362 40.5151L66.6082 39.1655C66.4595 38.3784 66.5959 38.3196 66.3023 37.7445C65.7664 38.1446 65.5548 39.3471 62.9453 37.7956C58.3177 35.0441 61.3447 34.411 61.9906 33.804C61.5179 33.2896 59.8749 33.1033 58.9592 32.9205C57.5495 32.6389 56.7702 32.7832 55.4043 32.9792Z" fill="#B88522"/>
<path fill-rule="evenodd" clip-rule="evenodd" d="M54.2186 33.3916L53.2969 34.1674L54.0574 34.7528C57.753 36.9148 57.0841 38.0203 58.3404 38.4934C59.6602 38.9904 63.2897 40.0001 63.9481 41.8525L65.6852 44.1914C66.2044 43.4301 66.9817 40.3191 66.608 39.1655L66.4359 40.5151C64.9545 40.803 64.2151 40.2978 62.9685 39.6288L57.4627 36.0766C56.8862 35.5554 55.5201 34.5327 56.1711 33.3767L55.9169 33.2303C54.4059 32.4274 56.2111 33.857 55.4041 32.9792C54.8746 33.1559 54.7125 33.262 54.2186 33.3916Z" fill="#94671A"/>
<path fill-rule="evenodd" clip-rule="evenodd" d="M54.0699 53.2359C53.8938 53.4487 53.804 53.5776 53.5894 53.8063C53.622 53.8613 53.877 54.3381 53.8895 54.3561L54.4725 54.4752C55.1463 53.1192 56.3338 52.9715 57.0191 51.515C57.6811 51.8432 57.8571 51.9573 58.3619 52.4901C58.7623 52.9129 59.0817 53.3993 59.8521 53.3341C60.0835 53.0936 60.0087 53.1163 60.154 52.7753C59.7522 52.119 59.6736 52.3646 59.3622 51.7643C58.6909 51.4951 58.1635 51.055 57.8577 50.4643L59.2282 48.7825C59.553 48.3602 60.4764 47.3017 59.7949 46.925C59.107 46.5448 58.6734 47.8016 58.3375 48.2904C57.9206 48.897 57.4411 49.3498 57.05 49.9132C55.4095 48.8913 53.8975 47.1964 53.3132 48.08C53.0586 48.8405 53.296 48.5674 53.7077 48.8779L56.3878 50.5584C55.88 51.4874 54.7775 52.8146 54.0699 53.2359Z" fill="#94671A"/>
<path fill-rule="evenodd" clip-rule="evenodd" d="M66.3016 37.7445C65.8713 35.7951 64.0613 34.1344 61.9899 33.804C61.344 34.411 58.317 35.0441 62.9446 37.7956C65.5541 39.347 65.7657 38.1446 66.3016 37.7445Z" fill="#CE9629"/>
<path fill-rule="evenodd" clip-rule="evenodd" d="M47.9126 35.7178C47.3532 36.0064 47.2593 35.9304 46.8337 35.6083C46.7136 35.5174 46.3128 35.1063 46.2625 35.0767C44.8689 34.2556 45.7624 34.8712 45.4387 35.2368C46.6257 35.8226 46.3448 35.9776 46.8922 36.2126L45.165 37.1071C45.7462 37.556 46.6756 36.8603 47.4041 36.5352C47.7763 37.0493 47.516 36.8028 47.9164 37.0723C47.2516 37.3971 46.7906 37.3956 46.6017 38.1089C49.6318 36.8631 47.7513 37.7655 49.794 38.27C49.6406 37.7407 49.8519 38.186 49.3505 37.5859C49.11 37.2983 49.2442 37.5172 49.1043 37.3008C48.869 36.9367 48.9633 37.36 49.0034 37.0334C49.6368 36.8518 50.0245 37.4162 50.6061 37.6462C50.513 36.9929 50.5199 37.3166 49.8877 36.691C50.4032 36.1075 50.7598 36.3155 51.2689 35.6347C49.6865 35.5763 50.1258 36.745 48.8856 35.8661C49.4979 35.4626 49.6268 35.6879 50.1964 35.0413C49.6481 34.6498 49.2868 35.2024 48.415 35.5114C47.8921 34.9864 47.2218 34.3638 46.6076 34.267C46.6533 34.9453 46.9153 35.1314 47.9126 35.7178Z" fill="#94671A"/>
<path fill-rule="evenodd" clip-rule="evenodd" d="M30.9581 41.7159C30.5606 41.4897 30.8814 41.6175 30.7822 41.2105L30.5271 40.3665C30.1052 41.0958 30.4766 41.1027 30.1397 41.8472C29.2992 42.0322 28.978 41.9004 28.5264 42.448C29.2298 42.7631 29.4867 42.3047 30.2491 42.4648C29.9928 43.052 30.3698 42.6263 29.5851 42.8863L28.5487 43.2896C29.2656 43.6296 29.4663 43.4079 30.2634 43.2578C30.22 44.0577 30.1031 44.4761 30.5271 44.8978C30.9259 44.0499 30.3789 43.8452 30.9382 43.1137C31.7691 43.2518 31.1596 43.2127 31.555 44.3781C31.8413 44.0796 31.7398 44.3946 31.8648 43.7111C31.9076 43.4767 31.8613 43.2099 31.8459 42.9764C32.5678 42.7689 32.7019 42.8617 33.1409 42.4648C32.4949 42.1293 33.1112 42.4706 32.2114 42.3502C31.511 42.2565 32.2778 42.5228 31.8286 42.2586C32.166 41.7749 32.3873 41.9996 32.9744 41.7163C32.7431 41.4965 32.8557 41.3831 31.8504 41.5576L31.555 40.1175C31.1317 41.0303 31.7534 41.3353 30.9581 41.7159Z" fill="#94671A"/>
<path fill-rule="evenodd" clip-rule="evenodd" d="M50.0586 32.6328C50.2968 33.1614 49.9644 32.7558 50.5141 33.1854C51.076 33.5907 52.5624 34.1523 53.296 34.1675L54.2177 33.3916C53.801 32.8806 53.6664 32.5054 53.1409 32.1543C52.3208 32.9944 51.2562 32.6511 50.0586 32.6328Z" fill="#CE9629"/>
<path fill-rule="evenodd" clip-rule="evenodd" d="M26.8262 38.4106C26.9946 39.0178 27.217 39.308 27.443 39.9892C28.0408 39.6465 28.2808 39.4382 28.8379 39.1233C29.1361 38.9547 29.2585 38.9421 29.5337 38.8127C30.2197 38.4903 29.7439 38.8742 30.1718 38.3406C29.8834 37.9219 29.8125 37.7628 29.6323 37.3096L28.4243 38.0828C27.8754 38.2714 27.4988 38.2203 26.8262 38.4106Z" fill="#CE9629"/>
<path fill-rule="evenodd" clip-rule="evenodd" d="M53.8898 54.3561C53.5575 54.6074 53.4374 53.8964 53.6574 54.7382C55.0741 55.374 55.7075 53.0513 56.9065 52.5716C58.0337 52.1207 59.0076 53.6735 59.4788 53.8497C59.7148 53.938 59.7393 54.0295 59.9267 53.793C60.6442 52.8879 59.933 53.4405 59.8524 53.3341C59.082 53.3992 58.7626 52.9128 58.3622 52.4901C57.8575 51.9573 57.6814 51.8431 57.0194 51.5149C56.3341 52.9714 55.1466 53.1192 54.4728 54.4752L53.8898 54.3561Z" fill="#CE9629"/>
<path fill-rule="evenodd" clip-rule="evenodd" d="M33.6097 38.3406L34.616 38.6301C34.817 38.331 34.9704 38.0655 35.1281 37.7839C35.5753 36.9855 35.5659 37.3243 35.2555 36.873C34.6048 37.0849 34.7318 37.1416 34.2211 37.5129C34.096 37.6039 33.9153 37.6606 33.7499 37.8705C33.4494 38.2517 33.5691 37.9616 33.6097 38.3406Z" fill="#94671A"/>
<defs>
<linearGradient id="paint0_linear_20273_48361" x1="64.2881" y1="78.7464" x2="24.1318" y2="9.19365" gradientUnits="userSpaceOnUse">
<stop offset="0.5" stop-color="#D3A51E"/>
<stop offset="0.5" stop-color="#F0C12D"/>
</linearGradient>
<linearGradient id="paint1_linear_20273_48361" x1="44.2094" y1="13.4758" x2="44.2094" y2="74.4642" gradientUnits="userSpaceOnUse">
<stop offset="0.5" stop-color="#D3A51E"/>
<stop offset="0.5" stop-color="#F0C12D"/>
</linearGradient>
</defs>
</svg>
