<svg width="85" height="56" viewBox="0 0 85 56" fill="none" xmlns="http://www.w3.org/2000/svg">
<path d="M79.5913 32.0392V50.1016L7.91113 50.2497V32.0392C7.91113 14.7762 23.9651 0.799988 43.7512 0.799988C63.5373 0.799988 79.5913 14.7762 79.5913 32.0392Z" fill="#282C42"/>
<path d="M77.5185 32.809V50.1312L10.2812 50.2497V32.7794C10.2812 16.2271 25.3282 2.81351 43.8999 2.81351C62.4715 2.81351 77.5185 16.2271 77.5185 32.7794V32.809Z" fill="#454B6A"/>
<path d="M75.1484 35.1779V50.1016L12.6504 50.2201V35.1483C12.6504 18.7736 26.6606 5.50809 43.8994 5.50809C61.1382 5.50809 75.1484 18.7736 75.1484 35.1483V35.1779Z" fill="#363B57"/>
<path d="M46.4472 12.0224V49.924L41.708 49.9536V12.0224C41.708 10.7195 42.8039 9.68317 44.1072 9.68317C45.4105 9.68317 46.4768 10.7195 46.4768 12.0224H46.4472Z" fill="#23273A"/>
<path d="M54.2073 14.3616V49.924L49.5273 49.8944V14.3616C49.5273 13.0884 50.564 12.0224 51.8673 12.0224C53.1706 12.0224 54.2073 13.0588 54.2073 14.3616Z" fill="#23273A"/>
<path d="M38.3616 14.3616V49.924L33.6816 49.8944V14.3616C33.6816 13.0884 34.7183 12.0224 36.0216 12.0224C37.3249 12.0224 38.3616 13.0588 38.3616 14.3616Z" fill="#23273A"/>
<path d="M61.76 20.5799V49.924C61.7304 49.924 57.0801 49.9536 57.0801 49.9536V20.5799C57.1097 19.3066 58.1464 18.2702 59.4201 18.2702C60.6937 18.2702 61.7304 19.3066 61.7304 20.5799H61.76Z" fill="#23273A"/>
<path d="M30.4228 20.5799V49.924L25.7725 49.9536V20.5799C25.7725 19.3066 26.8388 18.2702 28.1124 18.2702C29.3861 18.2702 30.4228 19.3066 30.4228 20.5799Z" fill="#23273A"/>
<path d="M70.0546 27.9233V49.9536H65.4932V27.9233C65.4932 26.6796 66.5003 25.6729 67.7739 25.6729C69.0476 25.6729 70.0546 26.6796 70.0546 27.9233Z" fill="#23273A"/>
<path d="M22.6621 27.9233V49.9536C22.6621 49.9536 18.1598 49.9536 18.1006 49.9536V27.9233C18.1006 26.6796 19.1077 25.6729 20.3813 25.6729C21.655 25.6729 22.6621 26.6796 22.6621 27.9233Z" fill="#23273A"/>
<path d="M84.9235 55.4611C78.3183 55.5499 5.6903 55.55 0.240234 55.55C0.240234 53.2403 0.684519 49.9536 4.44625 49.9536H80.7471C84.9532 49.9536 84.9235 53.1811 84.9235 55.4908V55.4611Z" fill="#606993"/>
</svg>
