<svg width="300" height="33" viewBox="0 0 300 33" fill="none" xmlns="http://www.w3.org/2000/svg">
<path d="M15.0522 29.5748C6.96886 29.5748 1.04102 24.15 1.04102 16.4258C1.04102 8.70167 6.96886 3.2768 15.0522 3.2768C19.9741 3.2768 23.8542 5.07311 26.3331 8.30648L20.9801 13.0847C19.5071 11.2165 17.7467 10.1387 15.4833 10.1387C11.9626 10.1387 9.59146 12.5817 9.59146 16.4258C9.59146 20.2699 11.9626 22.7129 15.4833 22.7129C17.7467 22.7129 19.5071 21.6351 20.9801 19.767L26.3331 24.5451C23.8542 27.7785 19.9741 29.5748 15.0522 29.5748ZM44.7324 3.85162H53.211V29H44.7324V19.731H36.9004V29H28.4218V3.85162H36.9004V12.7613H44.7324V3.85162ZM56.9369 29V3.85162H65.4155V29H56.9369ZM82.1431 29.5748C74.0597 29.5748 68.1319 24.15 68.1319 16.4258C68.1319 8.70167 74.0597 3.2768 82.1431 3.2768C87.065 3.2768 90.945 5.07311 93.4239 8.30648L88.0709 13.0847C86.598 11.2165 84.8376 10.1387 82.5742 10.1387C79.0534 10.1387 76.6823 12.5817 76.6823 16.4258C76.6823 20.2699 79.0534 22.7129 82.5742 22.7129C84.8376 22.7129 86.598 21.6351 88.0709 19.767L93.4239 24.5451C90.945 27.7785 87.065 29.5748 82.1431 29.5748ZM112.039 29L105.752 20.6651L103.848 22.7848V29H95.5127V3.85162H103.848V12.9769L112.111 3.85162H121.344L111.284 14.9169L121.847 29H112.039ZM130.959 22.6051H143.533V29H122.624V3.85162H143.066V10.2465H130.959V13.1924H141.593V19.2999H130.959V22.6051ZM162.964 3.85162H171.227V29H164.258L154.701 17.5755V29H146.438V3.85162H153.408L162.964 15.2762V3.85162ZM200.418 29L196.143 22.677H193.843V29H185.365V3.85162H197.472C204.478 3.85162 208.932 7.5161 208.932 13.3362C208.932 16.9647 207.208 19.6951 204.19 21.2399L209.471 29H200.418ZM200.382 13.3362C200.382 11.5039 199.268 10.3902 196.933 10.3902H193.843V16.2821H196.933C199.268 16.2821 200.382 15.1684 200.382 13.3362ZM261.835 29L260.146 24.617H250.59L248.901 29H240.279L251.273 3.85162H259.607L270.601 29H261.835ZM252.925 18.5095H257.811L255.368 12.1865L252.925 18.5095ZM271.595 29V3.85162H283.989C292.396 3.85162 298.18 8.62981 298.18 16.4258C298.18 24.2218 292.396 29 283.989 29H271.595ZM280.073 22.3896H283.63C287.187 22.3896 289.63 20.2699 289.63 16.4258C289.63 12.5817 287.187 10.4621 283.63 10.4621H280.073V22.3896Z" fill="white"/>
<mask id="mask0_19730_27029" style="mask-type:alpha" maskUnits="userSpaceOnUse" x="212" y="0" width="28" height="33">
<path d="M239.729 19.2001C239.729 26.522 233.617 32.9368 226.077 32.9368C218.538 32.9368 212.426 26.522 212.426 19.2001C212.426 11.8783 218.538 0.591797 226.077 0.591797C233.617 0.591797 239.729 11.8783 239.729 19.2001Z" fill="#D9D9D9"/>
</mask>
<g mask="url(#mask0_19730_27029)">
<path d="M239.729 19.2001C239.729 26.522 233.617 32.9368 226.077 32.9368C218.538 32.9368 212.426 26.522 212.426 19.2001C212.426 11.8783 218.538 0.591797 226.077 0.591797C233.617 0.591797 239.729 11.8783 239.729 19.2001Z" fill="#F1C425"/>
<path d="M230.209 26.3912C241.097 22.7513 239.41 14.4524 236.113 8.41016L244.471 17.2187L245.851 33.9621L224.228 38.6212L205.365 28.8663L214.26 11.8316C211.116 20.4946 219.321 30.0311 230.209 26.3912Z" fill="url(#paint0_linear_19730_27029)"/>
<path d="M222.45 20.8116C227.663 21.975 232.92 18.5574 234.193 13.1782C235.466 7.79905 232.272 2.49531 227.059 1.33198C221.846 0.168652 216.588 3.58626 215.315 8.96542C214.043 14.3446 217.237 19.6483 222.45 20.8116Z" fill="#FFD12F"/>
<path d="M239.148 19.2001C239.148 26.2117 233.285 32.3555 226.077 32.3555C218.869 32.3555 213.007 26.2117 213.007 19.2001C213.007 15.6744 214.489 11.132 216.909 7.47082C219.342 3.79071 222.603 1.17307 226.077 1.17307C229.552 1.17307 232.813 3.79071 235.246 7.47082C237.666 11.132 239.148 15.6744 239.148 19.2001Z" stroke="url(#paint1_linear_19730_27029)" stroke-width="1.16254"/>
<path d="M218.157 15.1987C220.543 16.9477 224.468 15.8046 226.924 12.6455C229.38 9.48637 229.436 5.50759 227.05 3.75861C224.664 2.00963 220.739 3.15275 218.283 6.31184C215.827 9.47093 215.771 13.4497 218.157 15.1987Z" fill="#FFF27C"/>
</g>
<defs>
<linearGradient id="paint0_linear_19730_27029" x1="240.024" y1="23.5521" x2="212.745" y2="25.812" gradientUnits="userSpaceOnUse">
<stop stop-color="#C29920"/>
<stop offset="0.995" stop-color="#DBB017"/>
</linearGradient>
<linearGradient id="paint1_linear_19730_27029" x1="226.077" y1="0.591797" x2="226.077" y2="32.9368" gradientUnits="userSpaceOnUse">
<stop stop-color="#FFF27D"/>
<stop offset="1" stop-color="#FFD846"/>
</linearGradient>
</defs>
</svg>
