<svg width="96" height="36" viewBox="0 0 96 36" fill="none" xmlns="http://www.w3.org/2000/svg">
<path d="M18.9932 0.799988C19.0524 6.66318 23.2586 6.6928 23.2586 6.6928C23.2586 6.6928 23.1994 9.89089 26.754 9.68361C31.9673 14.8361 35.3146 29.8494 35.3146 29.8494H62.3293C63.8992 21.6469 67.6315 13.5628 71.2157 9.77246C74.8887 9.77246 75.1257 6.39668 75.1257 6.39668C79.9244 6.42629 79.4504 0.859197 79.4504 0.859197H19.0228L18.9932 0.799988Z" fill="#CDCBBB"/>
<path d="M20.5925 6.84089C20.0593 8.20305 21.1553 10.039 24.1767 9.89091C32.5003 9.92053 62.8622 9.92054 70.8304 9.97977C74.2665 9.97977 75.1255 8.64723 75.7476 7.43313C76.0734 6.78167 75.6291 5.8933 72.9928 5.83408C62.7141 5.92291 31.6709 6.10058 22.9326 6.1302C22.4291 6.1302 20.9184 5.95253 20.5629 6.84089H20.5925Z" fill="#DDDACC"/>
<path d="M94.8236 35.0612C87.5071 35.15 6.96659 35.15 0.923828 35.15C0.923828 32.9587 1.39776 29.8199 5.57437 29.8199H90.2027C94.8532 29.8199 94.8236 32.8995 94.8236 35.0612Z" fill="#606993" stroke="#606993" stroke-width="0.767917"/>
</svg>
