<svg width="123" height="334" viewBox="0 0 123 334" fill="none" xmlns="http://www.w3.org/2000/svg">
<g clip-path="url(#clip0_20724_115298)">
<mask id="mask0_20724_115298" style="mask-type:luminance" maskUnits="userSpaceOnUse" x="-1" y="0" width="125" height="334">
<path d="M123.555 0H-0.55497V334H123.555V0Z" fill="white"/>
</mask>
<g mask="url(#mask0_20724_115298)">
<path d="M934.299 21.6483H-2.97269V312.352H934.299V21.6483Z" fill="#3E4464"/>
<path d="M1023.54 334.315H-164.819V338.173H1023.54V334.315Z" fill="#1B1B1B" stroke="#333333" stroke-width="0.773148"/>
<path d="M1023.54 312.65H-164.819V316.508H1023.54V312.65Z" fill="#1F212D" stroke="#1F212D" stroke-width="0.773148"/>
<path d="M88.9444 316.508H-38.2467V334.315H88.9444V316.508Z" fill="#333647"/>
<path d="M215.454 316.479H88.9444V334.315H215.454V316.479Z" fill="#3A3D51"/>
<path d="M1023.59 17.8124H-164.756V21.6704H1023.59V17.8124Z" fill="#1F212D" stroke="#1F212D" stroke-width="0.773148"/>
<path d="M89.0065 0.00646973H-38.1848V17.8125H89.0065V0.00646973Z" fill="#333647"/>
<path d="M215.516 -0.0231934H89.0065V17.8125H215.516V-0.0231934Z" fill="#3A3D51"/>
<path d="M121.958 22V312" stroke="#9EA6CA" stroke-width="2" stroke-dasharray="12.37 12.37"/>
</g>
<path d="M63.2474 245.719V233.67C63.2474 230.792 65.7412 228.417 68.7695 228.417H95.7268C98.7553 228.417 101.249 230.792 101.249 233.67V245.719C101.249 248.597 98.7553 250.972 95.7268 250.972H68.7695C65.7412 250.972 63.2474 248.597 63.2474 245.719Z" fill="#363B57"/>
<path d="M23.4352 115.491V103.443C23.4352 100.564 25.929 98.1898 28.9572 98.1898H55.9147C58.9429 98.1898 61.4367 100.564 61.4367 103.443V115.491C61.4367 118.37 58.9429 120.744 55.9147 120.744H28.9572C25.929 120.744 23.4352 118.37 23.4352 115.491Z" fill="#363B57"/>
<path d="M64.0169 61.4912V49.1159C64.0169 46.1483 66.5107 43.7148 69.5389 43.7148H96.4961C99.5246 43.7148 102.019 46.1483 102.019 49.1159V61.4912C102.019 64.4588 99.5246 66.8923 96.4961 66.8923H69.5389C66.5107 66.8923 64.0169 64.4588 64.0169 61.4912Z" fill="#363B57"/>
</g>
<defs>
<clipPath id="clip0_20724_115298">
<rect width="123" height="334" fill="white"/>
</clipPath>
</defs>
</svg>
