<svg width="123" height="334" viewBox="0 0 123 334" fill="none" xmlns="http://www.w3.org/2000/svg">
<g clip-path="url(#clip0_20724_115312)">
<mask id="mask0_20724_115312" style="mask-type:luminance" maskUnits="userSpaceOnUse" x="-1" y="0" width="125" height="334">
<path d="M123.555 0H-0.554962V334H123.555V0Z" fill="white"/>
</mask>
<g mask="url(#mask0_20724_115312)">
<path d="M934.299 21.6483H-2.97269V312.352H934.299V21.6483Z" fill="#3E4464"/>
<path d="M1023.54 334.315H-164.818V338.173H1023.54V334.315Z" fill="#1B1B1B" stroke="#333333" stroke-width="0.773148"/>
<path d="M1023.54 312.65H-164.818V316.508H1023.54V312.65Z" fill="#1F212D" stroke="#1F212D" stroke-width="0.773148"/>
<path d="M88.9444 316.508H-38.2467V334.315H88.9444V316.508Z" fill="#333647"/>
<path d="M215.454 316.479H88.9444V334.315H215.454V316.479Z" fill="#3A3D51"/>
<path d="M1023.59 17.8124H-164.756V21.6704H1023.59V17.8124Z" fill="#1F212D" stroke="#1F212D" stroke-width="0.773148"/>
<path d="M89.0065 0.00646973H-38.1848V17.8125H89.0065V0.00646973Z" fill="#333647"/>
<path d="M215.516 -0.0231934H89.0065V17.8125H215.516V-0.0231934Z" fill="#3A3D51"/>
<path d="M121.958 22V312" stroke="#9EA6CA" stroke-width="2" stroke-dasharray="12.37 12.37"/>
</g>
<path d="M44.6713 245.719V233.67C44.6713 230.792 47.1652 228.417 50.1934 228.417H77.1508C80.179 228.417 82.6731 230.792 82.6731 233.67V245.719C82.6731 248.597 80.179 250.972 77.1508 250.972H50.1934C47.1652 250.972 44.6713 248.597 44.6713 245.719Z" fill="#363B57"/>
<path d="M68.6389 177.343V165.294C68.6389 162.416 71.1328 160.042 74.1609 160.042H101.118C104.146 160.042 106.641 162.416 106.641 165.294V177.343C106.641 180.222 104.146 182.596 101.118 182.596H74.1609C71.1328 182.596 68.6389 180.222 68.6389 177.343Z" fill="#363B57"/>
<path d="M17.6111 61.4912V49.116C17.6111 46.1483 20.105 43.7148 23.1332 43.7148H50.0906C53.1188 43.7148 55.6127 46.1483 55.6127 49.116V61.4912C55.6127 64.4589 53.1188 66.8924 50.0906 66.8924H23.1332C20.105 66.8924 17.6111 64.4589 17.6111 61.4912Z" fill="#363B57"/>
</g>
<defs>
<clipPath id="clip0_20724_115312">
<rect width="123" height="334" fill="white"/>
</clipPath>
</defs>
</svg>
