<svg width="37" height="81" viewBox="0 0 37 81" fill="none" xmlns="http://www.w3.org/2000/svg">
<path d="M22.4558 25.3037C22.4558 22.8992 20.6763 20.9501 18.4811 20.9501C16.286 20.9501 14.5064 22.8992 14.5064 25.3037V35.5834C14.5064 37.9878 16.286 39.9369 18.4811 39.9369C20.6763 39.9369 22.4558 37.9878 22.4558 35.5834V25.3037Z" fill="#5F6990"/>
<path d="M22.4558 4.53596C22.4558 2.13154 20.6763 0.182373 18.4811 0.182373C16.286 0.182373 14.5064 2.13154 14.5064 4.53596V14.8157C14.5064 17.2201 16.286 19.1692 18.4811 19.1692C20.6763 19.1692 22.4558 17.2201 22.4558 14.8157V4.53596Z" fill="#5F6990"/>
<path fill-rule="evenodd" clip-rule="evenodd" d="M4.58492 44.9518H32.3767C34.7827 44.9518 36.7513 46.9109 36.7513 49.3054V52.4846H0.210297V49.3054C0.210297 46.9109 2.17888 44.9518 4.58492 44.9518Z" fill="#5F6990"/>
<path fill-rule="evenodd" clip-rule="evenodd" d="M4.58492 44.9518H8.87446C7.66903 46.2883 6.93431 48.0631 6.93431 50.0102C6.93431 50.877 7.08063 51.7094 7.34836 52.4846H0.210297V49.3054C0.210297 46.9109 2.17888 44.9518 4.58492 44.9518ZM19.9615 44.9518H32.3767C34.7827 44.9518 36.7513 46.9109 36.7513 49.3054V52.4846H21.4876C21.7553 51.7094 21.9016 50.877 21.9016 50.0102C21.9016 48.0631 21.1669 46.2883 19.9615 44.9518Z" fill="#515A7C"/>
<path fill-rule="evenodd" clip-rule="evenodd" d="M13.9138 10.8113H14.5057V29.2949H13.9138C11.5077 29.2949 9.53915 27.3358 9.53915 24.9413V15.1649C9.53915 12.7704 11.5077 10.8113 13.9138 10.8113Z" fill="#3D4565"/>
<path fill-rule="evenodd" clip-rule="evenodd" d="M13.9138 31.4583H14.5057V44.9518H9.53915V35.8118C9.53915 33.4174 11.5077 31.4583 13.9138 31.4583Z" fill="#3D4565"/>
<path fill-rule="evenodd" clip-rule="evenodd" d="M23.0476 31.4583H22.4557V44.9518H27.4222V35.8118C27.4222 33.4174 25.4536 31.4583 23.0476 31.4583Z" fill="#3D4565"/>
<path fill-rule="evenodd" clip-rule="evenodd" d="M23.0476 10.8113H22.4557V29.2949H23.0476C25.4536 29.2949 27.4222 27.3358 27.4222 24.9413V15.1649C27.4222 12.7704 25.4536 10.8113 23.0476 10.8113Z" fill="#3D4565"/>
<path fill-rule="evenodd" clip-rule="evenodd" d="M18.4335 80.3739L26.6862 66.4292L34.9387 52.4846H18.4335H1.92828L10.1808 66.4292L18.4335 80.3739Z" fill="#3D4363"/>
<path fill-rule="evenodd" clip-rule="evenodd" d="M19.3279 52.4846V76.1581L33.3809 52.4846H19.3279ZM17.5408 52.4846V76.1581L3.48779 52.4846H17.5408Z" fill="#FFEF96"/>
<path fill-rule="evenodd" clip-rule="evenodd" d="M19.3279 62.5251V76.1581L33.3809 52.4846H25.1732C25.3609 53.1919 25.4622 53.9402 25.4622 54.715C25.4622 58.7015 22.793 61.9968 19.3279 62.5251ZM17.5408 62.5484V76.1581L3.48779 52.4846H11.527C11.3394 53.1919 11.2381 53.9402 11.2381 54.715C11.2381 58.766 13.9941 62.103 17.5408 62.5484Z" fill="#FFE332"/>
</svg>
