<svg width="80" height="100" viewBox="0 0 80 100" fill="none" xmlns="http://www.w3.org/2000/svg">
<g style="mix-blend-mode:multiply" opacity="0.59">
<path d="M50.5945 17.8294C38.46 17.1892 25.0331 18.5354 16.7041 19.6304C17.2965 21.7785 18.1162 23.747 19.0855 25.1232L39.0045 53.4251C39.208 53.7183 39.4234 53.9875 39.6448 54.2508C39.6926 54.3047 39.7405 54.3645 39.7884 54.4183C39.9858 54.6397 40.1833 54.8491 40.3867 55.0466C40.4765 55.1304 40.5662 55.2142 40.656 55.2979C40.7936 55.4176 40.9312 55.5313 41.0688 55.6449C41.2543 55.7885 41.4338 55.9262 41.6253 56.0518C41.6791 56.0937 41.739 56.1296 41.7988 56.1655C42.098 56.357 42.3972 56.5305 42.7023 56.6741C44.1862 57.3802 45.7599 57.5597 47.2916 57.2007C50.2176 57.8828 53.323 56.6382 55.5788 53.4311L75.4978 25.1292C76.1799 24.1599 76.7902 22.8914 77.2988 21.4793C72.4103 20.3005 63.2077 18.4936 50.6005 17.8294L50.5945 17.8294Z" fill="#6D3902"/>
</g>
<path d="M12.3783 25.1291L32.2973 53.431C32.5007 53.7241 32.7161 53.9934 32.9375 54.2566C32.9854 54.3105 33.0332 54.3703 33.0811 54.4242C33.2786 54.6456 33.476 54.855 33.6795 55.0525C33.7692 55.1362 33.859 55.22 33.9487 55.3038C34.0863 55.4234 34.224 55.5371 34.3616 55.6508C34.5471 55.7944 34.7266 55.932 34.918 56.0577C34.9719 56.0996 35.0317 56.1355 35.0916 56.1714C35.3907 56.3628 35.6899 56.5364 35.9951 56.68C37.479 57.386 39.0526 57.5655 40.5844 57.2065C43.5103 57.8886 46.6157 56.6441 48.8715 53.4369L68.7905 25.1351C72.5062 19.8516 74.05 5.9999 68.7905 5.9999L64.8773 5.9999C53.0959 5.9999 34.0684 5.9999 21.2159 5.9999L12.3902 5.9999C7.13076 5.9999 8.6745 19.8517 12.3902 25.1351L12.3783 25.1291Z" fill="#B26510"/>
<path d="M38.1837 43.3134L26.3843 26.5477C24.1824 23.4123 23.2669 15.209 26.3843 15.209L57.9591 15.209C61.0765 15.209 60.161 23.4123 57.9591 26.5477L46.1597 43.3134C43.9578 46.4427 40.3856 46.4427 38.1837 43.3134Z" fill="url(#paint0_linear_22185_35088)"/>
<path d="M36.67 43.05L25.11 26.6253C22.9559 23.5618 22.0584 15.52 25.11 15.52C32.9124 15.52 48.7148 15.52 56.0446 15.52C59.0961 15.52 58.2046 23.5618 56.0446 26.6253L44.4845 43.05C42.3304 46.1135 38.8301 46.1135 36.67 43.05Z" fill="#386200"/>
<path d="M34.8215 43.05L23.2614 26.6253C21.1014 23.5618 20.2098 15.52 23.2614 15.52C31.0639 15.52 46.8662 15.52 54.196 15.52C57.2476 15.52 56.356 23.5618 54.196 26.6253L42.6359 43.05C40.4759 46.1135 36.9815 46.1135 34.8215 43.05Z" fill="#8BD11E"/>
<g style="mix-blend-mode:overlay" opacity="0.48">
<path d="M24.3385 26.625L35.8985 43.0556C36.8379 44.39 38.0346 45.1439 39.2672 45.3174C37.6756 45.5328 36.0361 44.7849 34.8215 43.0556L23.2614 26.625C21.1014 23.5615 20.2098 15.5197 23.2614 15.5197L24.3385 15.5197C21.2869 15.5197 22.1784 23.5615 24.3385 26.625Z" fill="white"/>
</g>
<path d="M23.3212 17.6919C23.6443 15.4302 25.6787 15.5917 26.0676 19.0621C26.4625 22.5266 25.8103 25.8414 24.3803 24.6268C22.9502 23.4061 23.01 19.9058 23.3212 17.6979L23.3212 17.6919Z" fill="white"/>
<path d="M29.3641 29.6709C31.2609 31.0651 40.4335 42.5833 38.2376 42.2721C36.0416 41.955 20.6462 23.2686 29.3641 29.6709Z" fill="white"/>
<g style="mix-blend-mode:overlay" opacity="0.48">
<path d="M36.5034 51.4807L18.3675 25.7099C14.9808 20.8992 13.5807 8.28598 18.3675 8.28598C30.6097 8.28598 55.3992 8.28598 66.8935 8.28598C71.6803 8.28598 70.2801 20.8932 66.8935 25.7039L48.7576 51.4747C45.3709 56.2854 39.8841 56.2854 36.4974 51.4747L36.5034 51.4807Z" fill="white"/>
</g>
<path d="M33.6792 51.4807L15.5433 25.7099C12.1566 20.8992 10.7565 8.28598 15.5433 8.28598C27.7855 8.28598 52.575 8.28598 64.0753 8.28598C68.862 8.28598 67.4619 20.8932 64.0753 25.7039L45.9393 51.4747C42.5527 56.2854 37.0658 56.2854 33.6792 51.4747L33.6792 51.4807Z" fill="#6D3902"/>
<g style="mix-blend-mode:overlay" opacity="0.48">
<path d="M65.9421 9.54846L17.4101 9.54846C12.6233 9.54846 14.0235 22.1616 17.4101 26.9723L35.546 52.7432C36.0068 53.4014 36.5094 53.9638 37.0419 54.4365C35.8153 53.8501 34.6545 52.8748 33.6792 51.4867L15.5433 25.7158C12.1566 20.9051 10.7565 8.29194 15.5433 8.29194C27.7855 8.29194 52.575 8.29194 64.0753 8.29194C65.0027 8.29194 65.6968 8.77062 66.1874 9.56642C66.1037 9.56642 66.0259 9.54846 65.9421 9.54846Z" fill="white"/>
</g>
<path d="M35.3426 43.755L26.3374 26.5405C24.1355 23.4112 23.22 15.2018 26.3374 15.2018C34.3014 15.2018 50.4329 15.2018 57.9122 15.2018C61.0296 15.2018 60.1142 23.4052 57.9122 26.5346L46.1128 43.3002C43.9109 46.4296 37.5445 46.8724 35.3426 43.743L35.3426 43.755Z" fill="#B26510"/>
<path d="M34.7678 43.0554L23.2077 26.6247C21.0477 23.5612 20.1561 15.5194 23.2077 15.5194C31.0102 15.5194 46.8125 15.5194 54.1423 15.5194C57.1939 15.5194 56.3023 23.5612 54.1423 26.6247L42.5822 43.0554C40.4222 46.1189 36.9278 46.1189 34.7678 43.0554Z" fill="url(#paint1_linear_22185_35088)"/>
<g style="mix-blend-mode:overlay" opacity="0.48">
<path d="M24.2847 26.6251L35.8448 43.0558C36.7842 44.3901 37.9809 45.15 39.2135 45.3175C37.6279 45.5389 35.9824 44.785 34.7678 43.0558L23.2077 26.6251C21.0477 23.5616 20.1561 15.5198 23.2077 15.5198L24.2847 15.5198C21.2332 15.5198 22.1247 23.5616 24.2847 26.6251Z" fill="white"/>
</g>
<path d="M23.2675 17.6917C23.5906 15.4299 25.625 15.5915 26.0139 19.0619C26.4088 22.5263 25.7566 25.8412 24.3265 24.6265C22.8965 23.4059 22.9563 19.9056 23.2675 17.6977L23.2675 17.6917Z" fill="white"/>
<path d="M29.3114 29.6707C31.2081 31.0648 40.3808 42.583 38.1848 42.2719C35.9889 41.9548 20.5934 23.2684 29.3114 29.6707Z" fill="white"/>
<path d="M47.7404 36.4146L43.4023 26.1409L50.5945 31.9748L47.7404 36.4146Z" fill="#B26510"/>
<g style="mix-blend-mode:overlay" opacity="0.48">
<path d="M50.594 31.9744L51.6292 29.928L42.9531 25.7396L50.594 31.9744Z" fill="white"/>
</g>
<defs>
<linearGradient id="paint0_linear_22185_35088" x1="42.1747" y1="45.6589" x2="42.1747" y2="15.209" gradientUnits="userSpaceOnUse">
<stop stop-color="#380E87"/>
<stop offset="1" stop-color="#D60EA4"/>
</linearGradient>
<linearGradient id="paint1_linear_22185_35088" x1="56.1109" y1="30.4302" x2="21.2391" y2="30.4302" gradientUnits="userSpaceOnUse">
<stop stop-color="#D07C13"/>
<stop offset="1" stop-color="#FFE600"/>
</linearGradient>
</defs>
</svg>
