<svg width="318" height="90" viewBox="0 0 318 90" fill="none" xmlns="http://www.w3.org/2000/svg">
<path d="M304.668 71.572C301.528 82.8208 295.078 85.1005 287.388 85.1005H30.6179C22.9279 85.1005 16.4679 82.8208 13.3379 71.572L14.7479 76.6015C17.8579 87.7402 24.2479 90 31.8579 90H286.148C293.768 90 300.158 87.7402 303.258 76.6015L304.668 71.572Z" fill="#FFC626"/>
<path d="M304.337 0H13.6574C4.03742 0 -2.28258 7.68915 0.77742 20.5277L13.3374 71.5721C16.4774 84.7206 22.9274 87.3903 30.6174 87.3903H287.387C295.077 87.3903 301.537 84.7306 304.667 71.5721L317.227 20.5277C320.287 7.68915 313.967 0 304.347 0H304.337Z" fill="url(#paint0_linear_22185_35087)"/>
<mask id="mask0_22185_35087" style="mask-type:luminance" maskUnits="userSpaceOnUse" x="0" y="0" width="319" height="88">
<path d="M304.337 0H13.6574C4.03742 0 -2.28258 7.68915 0.77742 20.5277L13.3374 71.5721C16.4774 84.7206 22.9274 87.3903 30.6174 87.3903H287.387C295.077 87.3903 301.537 84.7306 304.667 71.5721L317.227 20.5277C320.287 7.68915 313.967 0 304.347 0H304.337Z" fill="white"/>
</mask>
<g mask="url(#mask0_22185_35087)">
<path opacity="0.2" d="M36.4673 113.578L8.69727 -6.30911L26.1373 -12.3984L53.9073 107.478L36.4673 113.578Z" fill="#FF903B"/>
<path opacity="0.2" d="M77.8071 113.578L50.0371 -6.30911L67.4871 -12.3984L95.2571 107.478L77.8071 113.578Z" fill="#FF903B"/>
<path opacity="0.2" d="M119.158 113.578L91.3877 -6.30911L108.828 -12.3984L136.598 107.478L119.158 113.578Z" fill="#FF903B"/>
<path opacity="0.2" d="M160.078 113.578L132.308 -6.30911L149.758 -12.3984L177.518 107.478L160.078 113.578Z" fill="#FF903B"/>
<path opacity="0.2" d="M201.417 113.578L173.657 -6.30911L191.097 -12.3984L218.867 107.478L201.417 113.578Z" fill="#FF903B"/>
<path opacity="0.2" d="M242.757 113.578L214.987 -6.30911L232.437 -12.3984L260.197 107.478L242.757 113.578Z" fill="#FF903B"/>
<path opacity="0.2" d="M283.677 113.578L255.917 -6.30911L273.357 -12.3984L301.127 107.478L283.677 113.578Z" fill="#FF903B"/>
<path opacity="0.2" d="M325.027 113.578L297.257 -6.30911L314.707 -12.3984L342.467 107.478L325.027 113.578Z" fill="#FF903B"/>
</g>
<path opacity="0.49" d="M4.90711 20.5877C6.66711 16.6481 11.3671 14.4284 17.4371 14.4284H300.547C306.617 14.4284 311.317 16.6481 313.077 20.5877V20.5477C316.067 11.7587 309.917 6.49927 300.547 6.49927H17.4371C8.06711 6.49927 1.91711 11.7587 4.89711 20.5477V20.5877H4.90711Z" fill="#FFF9D4"/>
<path opacity="0.27" d="M300.268 48.9147C253.428 72.5121 202.168 70.2024 153.218 59.4536C126.148 53.5042 99.2978 46.425 71.6678 46.355C50.6378 46.305 29.6978 49.2047 9.21777 54.8141L13.3378 71.5722C16.4778 84.7208 22.9278 87.3905 30.6178 87.3905H287.388C295.078 87.3905 301.538 84.7308 304.668 71.5722L311.798 42.5854C308.008 44.8352 304.168 46.955 300.268 48.9147Z" fill="#ED8D00"/>
<path opacity="0.27" d="M266.947 81.431C237.817 81.431 210.547 80.5511 181.417 81.031C152.317 81.501 115.917 79.3512 86.817 80.0911C59.817 80.781 25.507 79.4312 12.877 69.7723L13.327 71.5821C16.467 84.7306 22.917 87.4003 30.607 87.4003H287.377C295.067 87.4003 301.527 84.7406 304.657 71.5821L305.647 67.5725C296.427 76.6215 289.207 81.441 266.947 81.441V81.431Z" fill="#E87000"/>
<defs>
<linearGradient id="paint0_linear_22185_35087" x1="158.997" y1="-3.5996" x2="158.997" y2="89.0901" gradientUnits="userSpaceOnUse">
<stop stop-color="#FFCC00"/>
<stop offset="1" stop-color="#FFAD05"/>
</linearGradient>
</defs>
</svg>
