<svg width="390" height="390" viewBox="0 0 390 390" fill="none" xmlns="http://www.w3.org/2000/svg">
<path d="M195.442 18.8903C291.722 18.8902 369.771 97.7106 369.771 194.942C369.771 292.174 291.716 371 195.442 371C99.1679 371 21.1074 292.18 21.1074 194.942C21.1074 97.7046 99.1559 18.8903 195.442 18.8903Z" fill="#B26510"/>
<path d="M21 194.948C21 218.062 25.4158 240.129 33.4277 260.347L62.7707 248.494C55.8478 231.98 52.0004 213.91 52.0004 194.942L21 194.942L21 194.948Z" fill="url(#paint0_linear_22185_35098)"/>
<path d="M72.0576 70.4556C56.4946 86.1682 43.8575 104.855 35.0498 125.581L64.1774 138.183C71.6627 121.531 82.3253 106.584 95.4351 94.0664L72.0576 70.4556Z" fill="url(#paint1_linear_22185_35098)"/>
<path d="M72.0566 319.435C87.6197 335.147 106.115 347.916 126.638 356.808L140.191 324.874C123.413 318.005 108.263 308.078 95.4341 295.83L72.0566 319.435Z" fill="url(#paint2_linear_22185_35098)"/>
<path d="M195.329 371C218.216 371 240.068 366.542 260.094 358.441L247.278 326.1C231.164 332.269 213.656 335.674 195.329 335.674L195.329 371Z" fill="url(#paint3_linear_22185_35098)"/>
<path d="M338.65 194.948L369.662 194.948C369.662 171.834 365.247 149.767 357.229 129.549L327.886 141.402C334.815 157.916 338.656 175.986 338.656 194.954L338.65 194.948Z" fill="url(#paint4_linear_22185_35098)"/>
<path d="M295.217 295.83L318.6 319.435C334.169 303.716 346.8 285.036 355.608 264.309L326.486 251.702C319.001 268.354 308.327 283.306 295.223 295.83L295.217 295.83Z" fill="url(#paint5_linear_22185_35098)"/>
<path d="M195.329 18.8902C172.442 18.8902 150.59 23.3478 130.563 31.4435L143.374 63.7842C159.488 57.6332 176.995 54.2226 195.323 54.2226L195.323 18.8902L195.329 18.8902Z" fill="url(#paint6_linear_22185_35098)"/>
<path d="M295.217 94.0664L318.601 70.4556C303.044 54.743 284.543 41.9742 264.025 33.0828L250.467 65.0166C267.244 71.8916 282.383 81.8122 295.217 94.0664Z" fill="url(#paint7_linear_22185_35098)"/>
<g style="mix-blend-mode:overlay">
<path d="M364.159 194.942C364.159 240.009 346.609 282.378 314.741 314.246C282.873 346.115 240.504 363.664 195.437 363.664C150.369 363.664 108 346.115 76.1323 314.247C44.2702 282.379 26.7207 240.009 26.7207 194.942C26.7207 149.874 44.2702 107.511 76.1382 75.6433C108.006 43.7753 150.375 26.2258 195.443 26.2258C240.51 26.2258 282.879 43.7753 314.747 75.6433C346.615 107.511 364.165 149.88 364.165 194.942L364.159 194.942ZM33.9009 194.942C33.9009 284.018 106.367 356.484 195.443 356.484C284.519 356.484 356.985 284.018 356.985 194.942C356.985 105.866 284.519 33.4059 195.443 33.4059C106.367 33.4059 33.9009 105.872 33.9009 194.942Z" fill="white"/>
</g>
<defs>
<linearGradient id="paint0_linear_22185_35098" x1="352.072" y1="221.868" x2="-102.05" y2="229.945" gradientUnits="userSpaceOnUse">
<stop stop-color="#00168C"/>
<stop offset="1" stop-color="#0074E4"/>
</linearGradient>
<linearGradient id="paint1_linear_22185_35098" x1="349.888" y1="99.3079" x2="-104.234" y2="107.386" gradientUnits="userSpaceOnUse">
<stop stop-color="#00168C"/>
<stop offset="1" stop-color="#0074E4"/>
</linearGradient>
<linearGradient id="paint2_linear_22185_35098" x1="353.849" y1="322.002" x2="-100.274" y2="330.079" gradientUnits="userSpaceOnUse">
<stop stop-color="#00168C"/>
<stop offset="1" stop-color="#0074E4"/>
</linearGradient>
<linearGradient id="paint3_linear_22185_35098" x1="354.28" y1="346.198" x2="-99.8418" y2="354.276" gradientUnits="userSpaceOnUse">
<stop stop-color="#00168C"/>
<stop offset="1" stop-color="#0074E4"/>
</linearGradient>
<linearGradient id="paint4_linear_22185_35098" x1="351.012" y1="162.464" x2="-103.11" y2="170.542" gradientUnits="userSpaceOnUse">
<stop stop-color="#00168C"/>
<stop offset="1" stop-color="#0074E4"/>
</linearGradient>
<linearGradient id="paint5_linear_22185_35098" x1="353.191" y1="285.024" x2="-100.931" y2="293.101" gradientUnits="userSpaceOnUse">
<stop stop-color="#00168C"/>
<stop offset="1" stop-color="#0074E4"/>
</linearGradient>
<linearGradient id="paint6_linear_22185_35098" x1="348.805" y1="38.133" x2="-105.323" y2="46.2107" gradientUnits="userSpaceOnUse">
<stop stop-color="#00168C"/>
<stop offset="1" stop-color="#0074E4"/>
</linearGradient>
<linearGradient id="paint7_linear_22185_35098" x1="349.23" y1="62.336" x2="-104.892" y2="70.4137" gradientUnits="userSpaceOnUse">
<stop stop-color="#00168C"/>
<stop offset="1" stop-color="#0074E4"/>
</linearGradient>
</defs>
</svg>
