<svg width="390" height="390" viewBox="0 0 390 390" fill="none" xmlns="http://www.w3.org/2000/svg">
<path d="M195.375 35C283.949 35 355.756 106.802 355.756 195.369C355.756 283.937 283.949 355.744 195.375 355.744C106.802 355.744 35 283.943 35 195.369C35 106.796 106.802 35 195.369 35L195.375 35Z" fill="#6D3902"/>
<path d="M44.006 198.105C44.4607 223.475 51.3956 248.486 64.1464 270.613C76.8972 292.74 95.057 311.277 116.783 324.393L142.919 279.199L189.758 198.219L87.7392 198.141L44 198.111L44.006 198.105Z" fill="url(#paint0_linear_22185_35097)"/>
<path d="M116.999 66.1397C72.8051 92.7662 45.1075 140.646 44.0186 192.289L96.1646 192.331L189.77 192.403L116.999 66.1397Z" fill="url(#paint1_linear_22185_35097)"/>
<path d="M44.0176 192.295L96.1636 192.331L44.0176 192.289L44.0176 192.295Z" fill="url(#paint2_linear_22185_35097)"/>
<path d="M122.036 63.2374L194.807 189.501L267.776 63.3331C222.541 38.382 167.229 38.3461 122.036 63.2374Z" fill="url(#paint3_linear_22185_35097)"/>
<path d="M345.597 192.522C345.143 167.153 338.208 142.142 325.451 120.021C312.7 97.8937 294.54 79.3509 272.814 66.2411L199.84 192.415L288.976 192.481L345.591 192.522L345.597 192.522Z" fill="url(#paint4_linear_22185_35097)"/>
<path d="M272.605 324.488C316.799 297.862 344.497 249.982 345.586 198.338L296.186 198.303L199.834 198.231L272.605 324.494L272.605 324.488Z" fill="url(#paint5_linear_22185_35097)"/>
<path d="M296.186 198.297L199.834 198.225L296.186 198.297Z" fill="url(#paint6_linear_22185_35097)"/>
<path d="M121.827 327.294C167.062 352.246 222.374 352.281 267.567 327.39L194.796 201.127L164.268 253.907L121.821 327.294L121.827 327.294Z" fill="url(#paint7_linear_22185_35097)"/>
<path d="M164.268 253.907L194.795 201.127L164.268 253.907Z" fill="url(#paint8_linear_22185_35097)"/>
<g style="mix-blend-mode:overlay" opacity="0.25">
<path d="M196.196 201.054L145.187 289.406L123.317 327.281C145.528 339.559 170.659 346.033 196.196 346.033C208.905 346.033 221.512 344.43 233.713 341.306C241.515 328.43 247.941 314.213 252.74 298.991L242.969 282.07L196.196 201.054Z" fill="white"/>
<path d="M191.158 198.145L45.4248 198.145C46.43 249.735 74.0797 297.639 118.28 324.373L144.35 279.215L191.152 198.151L191.158 198.145Z" fill="white"/>
<path d="M118.286 324.373L144.356 279.21L118.286 324.373Z" fill="white"/>
<path d="M45.4248 192.33L191.158 192.33L118.28 66.1084C74.0737 92.8425 46.424 140.746 45.4248 192.33Z" fill="white"/>
<path d="M196.197 189.421L233.109 125.482C210.492 88.6656 176.631 62.9606 137.84 56.1633C132.886 58.2396 128.033 60.5851 123.318 63.1879L196.197 189.415L196.197 189.421Z" fill="white"/>
<path d="M258.682 192.33C254.41 170.078 246.787 149.429 236.501 131.239L201.234 192.33L258.682 192.33Z" fill="white"/>
<path d="M231.714 250.949L255.002 291.29C259.927 273.262 262.595 253.959 262.595 233.878C262.595 221.642 261.602 209.693 259.711 198.145L201.223 198.145L231.708 250.949L231.714 250.949Z" fill="white"/>
<path d="M201.229 198.146L231.714 250.95L201.235 198.146L201.229 198.146Z" fill="white"/>
</g>
<g style="mix-blend-mode:overlay">
<path d="M55.4826 195.231C55.4826 113.838 120.182 47.5471 201.103 44.5913C199.23 44.5195 197.363 44.4477 195.472 44.4477C111.943 44.4477 44.2217 111.959 44.2217 195.237C44.2217 278.515 111.943 346.021 195.472 346.021C197.357 346.021 199.23 345.949 201.103 345.877C120.182 342.922 55.4826 276.625 55.4826 195.225L55.4826 195.231Z" fill="white"/>
</g>
<path d="M55.225 256.263C55.225 256.263 65.014 253.929 60.293 236.027C55.578 218.142 44 216.024 44 216.024L55.225 256.263Z" fill="#6D3902"/>
<path d="M51.9518 227.901C47.4702 222.408 46.7043 221.463 46.7043 221.463L45.7051 216.556C45.7051 216.556 52.1194 218.028 57.307 228.063C62.5067 238.103 62.1178 245.367 61.2801 248.251C60.4424 251.135 56.4335 233.4 51.9518 227.895L51.9518 227.901Z" fill="#934900"/>
<path d="M232.575 261.067C232.575 261.067 223.995 266.315 214.708 250.303C205.428 234.303 212.135 224.628 212.135 224.628L232.575 261.061L232.575 261.067Z" fill="#6D3902"/>
<path d="M214.882 238.665C214.182 231.61 214.056 230.402 214.056 230.402L211.304 226.219C211.304 226.219 207.797 231.784 211.202 242.56C214.607 253.348 220.004 258.219 222.631 259.667C225.263 261.121 215.582 245.725 214.876 238.665L214.882 238.665Z" fill="#934900"/>
<path d="M130.371 337.28L145.814 315.997L152.498 302.408C152.498 302.408 149.028 312.64 147.903 316.511C146.778 320.401 141.71 331.608 143.188 334.569C144.648 337.525 154.73 339.41 152.522 340.685C150.32 341.965 130.371 337.274 130.371 337.274L130.371 337.28Z" fill="#6D3902"/>
<path d="M147.903 316.511L153.3 302.247C153.3 302.247 149.824 316.092 149.573 316.84C149.345 317.576 143.715 332.762 142.913 333.002C142.117 333.271 147.897 316.505 147.897 316.505L147.903 316.511Z" fill="#FFD818"/>
<path d="M125.752 330.374C125.752 330.374 140.094 317.761 141.381 316.253C142.673 314.728 152.492 302.408 152.492 302.408L145.809 315.996L135.032 334.431L125.746 330.374L125.752 330.374Z" fill="#B26510"/>
<path opacity="0.32" d="M327.975 184.754C328.813 180.165 329.13 175.444 329.328 170.663C329.501 165.883 329.477 161.042 329.286 156.159C329.106 151.277 328.735 146.352 328.185 141.35C327.598 136.336 326.886 131.304 325.654 126.098C324.81 130.688 324.487 135.427 324.296 140.189C324.116 144.97 324.14 149.805 324.355 154.687C324.541 159.576 324.906 164.512 325.456 169.52C326.049 174.517 326.749 179.567 327.981 184.754L327.975 184.754Z" fill="#6D3902"/>
<path d="M328.119 171.532C328.119 171.532 326.193 151.086 326.001 148.011C325.822 144.941 325.756 133.489 325.756 133.489C325.756 133.489 331.057 155.735 328.119 171.532Z" fill="#6D3902"/>
<path opacity="0.32" d="M180.34 186.256C178.228 182.091 175.619 178.148 172.885 174.223C170.127 170.31 167.177 166.474 164.065 162.705C160.972 158.929 157.693 155.237 154.223 151.587C150.722 147.949 147.108 144.377 142.974 140.979C145.08 145.143 147.689 149.11 150.423 153.018C153.175 156.931 156.119 160.76 159.249 164.524C162.36 168.305 165.639 172.009 169.103 175.665C172.598 179.285 176.212 182.881 180.34 186.262L180.34 186.256Z" fill="#6D3902"/>
<path d="M172.448 175.641C172.448 175.641 158.537 160.532 156.52 158.205C154.516 155.871 147.533 146.794 147.533 146.794C147.533 146.794 165.22 161.292 172.442 175.641L172.448 175.641Z" fill="#6D3902"/>
<path d="M345.034 227.226L332.798 231.558L326.049 231.528C326.049 231.528 330.602 232.94 332.272 233.646C333.947 234.358 339.362 234.765 339.859 237.35C340.349 239.953 337.615 249.658 338.776 248.27C339.93 246.893 345.034 227.226 345.034 227.226Z" fill="#6D3902"/>
<path d="M332.272 233.64L325.69 231.635C325.69 231.635 331.5 235.142 331.818 235.261C332.141 235.369 339.081 237.039 339.429 236.434C339.782 235.842 332.272 233.64 332.272 233.64Z" fill="#FFD818"/>
<path opacity="0.35" d="M344.473 219.71C344.473 219.71 335.492 226.884 334.553 227.351C333.607 227.823 325.697 231.641 325.697 231.641L332.74 232.257L342.72 229.69L344.473 219.716L344.473 219.71Z" fill="#6D3902"/>
<path d="M79.9242 83.5912L84.3221 91.1364L86.2607 96.6292L106.844 121.191L86.524 101.811C86.524 101.811 83.0596 102.511 83.0715 101.811C83.0835 101.111 82.557 95.0256 82.557 95.0256L63.6133 80.8149L79.9302 83.5912L79.9242 83.5912Z" fill="#6D3902"/>
<g style="mix-blend-mode:overlay">
<path d="M108.107 121.886C108.107 121.886 86.1655 95.9416 85.9082 95.6364C85.6509 95.3253 90.5634 90.742 90.5634 90.742C90.5634 90.742 109.142 120.51 108.107 121.886Z" fill="white"/>
</g>
<path d="M212.932 165.44L206.901 153.946L201.929 149.381C201.929 149.381 206.231 151.439 207.936 152.055C209.647 152.672 213.896 156.058 216.02 154.497C218.15 152.923 222.739 143.942 222.649 145.749C222.56 147.544 212.938 165.434 212.938 165.434L212.932 165.44Z" fill="#6D3902"/>
<path d="M207.936 152.055L201.743 149.058C201.743 149.058 208.391 150.434 208.702 150.565C209.013 150.703 215.236 154.197 215.08 154.873C214.937 155.544 207.93 152.055 207.93 152.055L207.936 152.055Z" fill="#FFD818"/>
<path opacity="0.35" d="M207.41 170.568C207.41 170.568 205.698 159.206 205.321 158.225C204.956 157.237 201.737 149.064 201.737 149.064L207.32 153.396L212.896 162.066L207.404 170.574L207.41 170.568Z" fill="#6D3902"/>
<defs>
<linearGradient id="paint0_linear_22185_35097" x1="20.3558" y1="159.774" x2="282.322" y2="361.124" gradientUnits="userSpaceOnUse">
<stop stop-color="#FFE600"/>
<stop offset="1" stop-color="#D07C13"/>
</linearGradient>
<linearGradient id="paint1_linear_22185_35097" x1="57.4425" y1="111.515" x2="319.409" y2="312.865" gradientUnits="userSpaceOnUse">
<stop stop-color="#FFE600"/>
<stop offset="1" stop-color="#D07C13"/>
</linearGradient>
<linearGradient id="paint2_linear_22185_35097" x1="23.0858" y1="156.215" x2="285.061" y2="357.553" gradientUnits="userSpaceOnUse">
<stop stop-color="#FFE600"/>
<stop offset="1" stop-color="#D07C13"/>
</linearGradient>
<linearGradient id="paint3_linear_22185_35097" x1="114.789" y1="36.9002" x2="376.758" y2="238.255" gradientUnits="userSpaceOnUse">
<stop stop-color="#FFE600"/>
<stop offset="1" stop-color="#D07C13"/>
</linearGradient>
<linearGradient id="paint4_linear_22185_35097" x1="115.533" y1="35.9261" x2="377.499" y2="237.276" gradientUnits="userSpaceOnUse">
<stop stop-color="#FFE600"/>
<stop offset="1" stop-color="#D07C13"/>
</linearGradient>
<linearGradient id="paint5_linear_22185_35097" x1="78.447" y1="84.1853" x2="340.413" y2="285.535" gradientUnits="userSpaceOnUse">
<stop stop-color="#FFE600"/>
<stop offset="1" stop-color="#D07C13"/>
</linearGradient>
<linearGradient id="paint6_linear_22185_35097" x1="86.2857" y1="74.0043" x2="348.233" y2="275.349" gradientUnits="userSpaceOnUse">
<stop stop-color="#FFE600"/>
<stop offset="1" stop-color="#D07C13"/>
</linearGradient>
<linearGradient id="paint7_linear_22185_35097" x1="21.1021" y1="158.792" x2="283.071" y2="360.147" gradientUnits="userSpaceOnUse">
<stop stop-color="#FFE600"/>
<stop offset="1" stop-color="#D07C13"/>
</linearGradient>
<linearGradient id="paint8_linear_22185_35097" x1="46.6692" y1="125.443" x2="308.72" y2="326.855" gradientUnits="userSpaceOnUse">
<stop stop-color="#FFE600"/>
<stop offset="1" stop-color="#D07C13"/>
</linearGradient>
</defs>
</svg>
